<svg width="8" height="14" viewBox="0 0 8 14" fill="none" xmlns="http://www.w3.org/2000/svg">
<path d="M2.46394 7.83209C2.41594 7.83209 1.35994 7.83209 0.879945 7.83209C0.623945 7.83209 0.543945 7.73609 0.543945 7.49609C0.543945 6.85609 0.543945 6.20009 0.543945 5.56009C0.543945 5.30409 0.639945 5.22409 0.879945 5.22409H2.46394C2.46394 5.17609 2.46394 4.24809 2.46394 3.81609C2.46394 3.17609 2.57594 2.56809 2.89594 2.00809C3.23194 1.43209 3.71194 1.04809 4.31994 0.824089C4.71994 0.680089 5.11994 0.616089 5.55194 0.616089H7.11993C7.34393 0.616089 7.43993 0.712089 7.43993 0.936089V2.76009C7.43993 2.98409 7.34393 3.08009 7.11993 3.08009C6.68793 3.08009 6.25594 3.08009 5.82394 3.09609C5.39194 3.09609 5.16794 3.30409 5.16794 3.75209C5.15194 4.23209 5.16794 4.69609 5.16794 5.19209H7.02393C7.27993 5.19209 7.37593 5.28809 7.37593 5.54409V7.48009C7.37593 7.73609 7.29593 7.81609 7.02393 7.81609C6.44793 7.81609 5.21594 7.81609 5.16794 7.81609V13.0321C5.16794 13.3041 5.08794 13.4001 4.79994 13.4001C4.12794 13.4001 3.47194 13.4001 2.79994 13.4001C2.55994 13.4001 2.46394 13.3041 2.46394 13.0641C2.46394 11.3841 2.46394 7.88009 2.46394 7.83209Z" fill="#2F1F10"/>
</svg>
