<svg width="20" height="20" viewBox="0 0 20 20" fill="none" xmlns="http://www.w3.org/2000/svg">
<path d="M15.3125 19.3945H4.6875C2.10281 19.3945 0 17.2917 0 14.707V8.41797C0 5.83328 2.10281 3.73047 4.6875 3.73047H5.45133L5.75437 2.79434C6.17824 1.48512 7.38758 0.605469 8.76371 0.605469H12.6075C13.9836 0.605469 15.1929 1.48512 15.6168 2.7943L15.9339 3.77145C16.9583 3.90645 17.9045 4.37406 18.6429 5.11953C19.518 6.00297 20 7.17438 20 8.41797V14.707C20 17.2917 17.8972 19.3945 15.3125 19.3945ZM4.6875 5.29297C2.96438 5.29297 1.5625 6.69484 1.5625 8.41797V14.707C1.5625 16.4302 2.96438 17.832 4.6875 17.832H15.3125C17.0356 17.832 18.4375 16.4302 18.4375 14.707V8.41797C18.4375 6.71246 17.0502 5.31078 15.3451 5.29348C15.0095 5.29008 14.7136 5.0727 14.6099 4.75348L14.1304 3.27617C13.9157 2.61309 13.3038 2.16797 12.6075 2.16797H8.76371C8.06738 2.16797 7.45543 2.61309 7.24094 3.27555L6.76293 4.7523C6.65855 5.07465 6.35844 5.29297 6.01965 5.29297H4.6875ZM13.168 4.51172C13.168 4.08023 12.8183 3.73047 12.3868 3.73047H8.98438C8.55289 3.73047 8.20312 4.08023 8.20312 4.51172C8.20312 4.9432 8.55289 5.29297 8.98438 5.29297H12.3868C12.8182 5.29297 13.168 4.9432 13.168 4.51172ZM10.7031 16.3477C8.11844 16.3477 6.01562 14.2448 6.01562 11.6602C6.01562 9.07547 8.11844 6.97266 10.7031 6.97266C13.2878 6.97266 15.3906 9.07547 15.3906 11.6602C15.3906 14.2448 13.2878 16.3477 10.7031 16.3477ZM10.7031 8.53516C8.98 8.53516 7.57812 9.93703 7.57812 11.6602C7.57812 13.3833 8.98 14.7852 10.7031 14.7852C12.4263 14.7852 13.8281 13.3833 13.8281 11.6602C13.8281 9.93703 12.4263 8.53516 10.7031 8.53516Z" fill="#D52723"/>
</svg>
