<svg width="32" height="32" viewBox="0 0 32 32" fill="none" xmlns="http://www.w3.org/2000/svg">
<path d="M27.3206 4.68366C21.0815 -1.55552 10.9263 -1.55552 4.68711 4.68366C1.66483 7.70713 0 11.7261 0 16.0004C0 20.2747 1.66483 24.2937 4.68711 27.3159C7.80733 30.4362 11.9056 31.9956 16.0038 31.9956C20.1021 31.9956 24.2004 30.4362 27.3206 27.3159C33.5598 21.0768 33.5598 10.924 27.3206 4.68366ZM25.5677 25.5631C20.2943 30.8365 11.7134 30.8365 6.43994 25.5631C3.88629 23.0094 2.47927 19.6127 2.47927 16.0004C2.47927 12.3881 3.88629 8.99139 6.43994 6.43649C11.7134 1.163 20.2943 1.16425 25.5677 6.43649C30.84 11.71 30.84 20.2908 25.5677 25.5631Z" fill="#2F1F10"/>
<path d="M21.3453 19.4269L17.8358 15.9224L21.3453 12.4179C21.8287 11.9345 21.8287 11.1498 21.3466 10.665C20.8619 10.1791 20.0772 10.1804 19.5925 10.6638L16.0806 14.1708L12.5687 10.6638C12.084 10.1804 11.2993 10.1791 10.8146 10.665C10.3311 11.1497 10.3311 11.9344 10.8158 12.4179L14.3253 15.9224L10.8158 19.4269C10.3311 19.9103 10.3311 20.695 10.8146 21.1798C11.0563 21.4227 11.3749 21.543 11.6923 21.543C12.0096 21.543 12.327 21.4215 12.5687 21.181L16.0806 17.674L19.5925 21.181C19.8343 21.4227 20.1516 21.543 20.469 21.543C20.7864 21.543 21.1049 21.4215 21.3467 21.1798C21.83 20.695 21.83 19.9103 21.3453 19.4269Z" fill="#2F1F10"/>
</svg>
