<svg width="20" height="20" viewBox="0 0 20 20" fill="none" xmlns="http://www.w3.org/2000/svg">
<path d="M0.638746 18.2168L5.39878 13.2662C4.17489 11.8113 3.50431 9.98069 3.50431 8.07499C3.50431 3.62251 7.12683 0 11.5793 0C16.0318 0 19.6543 3.62251 19.6543 8.07499C19.6543 12.5275 16.0318 16.15 11.5793 16.15C9.90778 16.15 8.3149 15.6458 6.95304 14.6888L2.15685 19.677C1.95637 19.8852 1.68674 20 1.39779 20C1.1243 20 0.864845 19.8957 0.667887 19.7061C0.249392 19.3034 0.23605 18.6357 0.638746 18.2168ZM11.5793 2.10652C8.28822 2.10652 5.61083 4.78391 5.61083 8.07499C5.61083 11.3661 8.28822 14.0435 11.5793 14.0435C14.8704 14.0435 17.5478 11.3661 17.5478 8.07499C17.5478 4.78391 14.8704 2.10652 11.5793 2.10652Z" fill="white"/>
</svg>
