<svg width="18" height="10" viewBox="0 0 18 10" fill="none" xmlns="http://www.w3.org/2000/svg">
<path fill-rule="evenodd" clip-rule="evenodd" d="M8.81966 9.52011H9.77966C9.77966 9.52011 10.0597 9.48011 10.2197 9.32011C10.3597 9.18011 10.3597 8.90011 10.3597 8.90011C10.3597 8.90011 10.3397 7.62011 10.9397 7.42011C11.5197 7.24011 12.2797 8.66011 13.0797 9.20011C13.6797 9.62011 14.1397 9.52011 14.1397 9.52011L16.2797 9.50011C16.2797 9.50011 17.3997 9.44011 16.8597 8.56011C16.8197 8.48011 16.5597 7.90011 15.2797 6.7201C13.9397 5.4801 14.1197 5.6801 15.7397 3.5201C16.7197 2.2201 17.1197 1.4201 16.9997 1.06009C16.8797 0.740094 16.1597 0.820095 16.1597 0.820095L13.7597 0.840095C13.7597 0.840095 13.5797 0.820095 13.4397 0.900095C13.2797 1.00009 13.1997 1.1801 13.1997 1.1801C13.1997 1.1801 12.8197 2.2001 12.3197 3.0601C11.2397 4.8801 10.8197 4.9801 10.6397 4.8601C10.2397 4.6001 10.3397 3.8001 10.3397 3.2401C10.3397 1.4801 10.5997 0.740094 9.81966 0.560094C9.55966 0.500094 9.35966 0.460094 8.69966 0.440094C7.83966 0.440094 7.11966 0.440094 6.69966 0.640094C6.41966 0.780095 6.21966 1.08009 6.33966 1.08009C6.49966 1.10009 6.85966 1.1801 7.03966 1.4401C7.27966 1.7801 7.27966 2.5201 7.27966 2.5201C7.27966 2.5201 7.41966 4.6001 6.93966 4.8601C6.61966 5.0401 6.17966 4.6801 5.21966 3.0201C4.73966 2.1801 4.35966 1.2401 4.35966 1.2401C4.35966 1.2401 4.27966 1.06009 4.15966 0.980095C4.05966 0.900095 3.85966 0.840095 3.63966 0.840095L1.49966 0.860094C1.49966 0.860094 1.15966 0.860095 1.03966 1.02009C0.919661 1.1601 1.03966 1.4201 1.03966 1.4201C1.03966 1.4201 2.83966 5.6001 4.85966 7.70011C6.71966 9.66011 8.81966 9.52011 8.81966 9.52011Z" fill="#2F1F10"/>
</svg>
