<svg width="83" height="83" viewBox="0 0 83 83" fill="none" xmlns="http://www.w3.org/2000/svg">
<path d="M41.085 82.17C63.7756 82.17 82.17 63.7756 82.17 41.085C82.17 18.3944 63.7756 0 41.085 0C18.3944 0 0 18.3944 0 41.085C0 63.7756 18.3944 82.17 41.085 82.17Z" fill="#FFEFD1"/>
<path d="M41.0849 79.1638C62.1152 79.1638 79.1637 62.1153 79.1637 41.085C79.1637 20.0547 62.1152 3.00623 41.0849 3.00623C20.0546 3.00623 3.0061 20.0547 3.0061 41.085C3.0061 62.1153 20.0546 79.1638 41.0849 79.1638Z" fill="#2F1F10"/>
<path d="M41.3267 60.5745C52.3711 60.5745 61.3244 51.7657 61.3244 40.8994C61.3244 30.0331 52.3711 21.2243 41.3267 21.2243C30.2824 21.2243 21.3291 30.0331 21.3291 40.8994C21.3291 51.7657 30.2824 60.5745 41.3267 60.5745Z" fill="#EA4939"/>
<path fill-rule="evenodd" clip-rule="evenodd" d="M70.0957 35.2112C69.4956 35.2825 69.0715 35.824 69.1472 36.4147C69.2197 37.0026 69.7655 37.4162 70.3664 37.3633C70.9634 37.2699 71.3892 36.7407 71.3144 36.1508C71.2393 35.5604 70.6952 35.1362 70.0957 35.2112ZM11.8295 37.2363C12.4236 37.3412 12.9936 36.9497 13.0994 36.3635C13.2069 35.7798 12.8107 35.2271 12.2203 35.1029C11.6216 35.0164 11.0553 35.399 10.9487 35.9827C10.8412 36.5689 11.2345 37.1313 11.8295 37.2363ZM54.37 33.1758C53.2767 35.296 51.0452 36.7497 48.4611 36.7497C48.4574 36.7497 48.454 36.748 48.452 36.748C48.4486 36.748 48.4451 36.7497 48.4415 36.7497C48.4198 36.7497 48.3948 36.746 48.3718 36.7443C47.0544 36.7276 45.8357 36.3282 44.8104 35.6617C43.7532 36.3574 42.4842 36.7637 41.1187 36.7637C39.7621 36.7637 38.5021 36.3618 37.4501 35.676C36.4072 36.3512 35.1614 36.7497 33.8193 36.7497C33.8156 36.7497 33.8122 36.748 33.8085 36.748C33.8068 36.748 33.8048 36.7497 33.8014 36.7497C33.674 36.7497 33.5448 36.7418 33.4214 36.7292C31.0039 36.5865 28.9411 35.1838 27.8999 33.1758H27.1615C27.1615 35.8724 28.8319 38.1824 31.201 39.1785V49.6946H36.3855V39.1839C36.7513 39.0297 37.1168 38.8419 37.4484 38.6267C37.7763 38.8391 38.1347 39.0252 38.4984 39.1785V49.6946H43.683V39.1819C44.0598 39.0241 44.4304 38.8321 44.7694 38.6108C45.1027 38.8313 45.4682 39.0216 45.8428 39.1785V49.6946H51.0472V39.1839C53.4184 38.1902 55.0745 35.8761 55.0745 33.1758H54.37ZM41.1204 34.8983C42.0866 34.8983 42.8681 34.1286 42.8681 33.1772C42.8681 32.2244 42.0866 31.4554 41.1204 31.4554C40.1526 31.4554 39.3676 32.2244 39.3676 33.1772C39.3676 34.1286 40.1526 34.8983 41.1204 34.8983ZM33.8156 34.8983C34.7815 34.8983 35.563 34.1286 35.563 33.1772C35.563 32.2244 34.7815 31.4554 33.8156 31.4554C32.848 31.4554 32.0628 32.2244 32.0628 33.1772C32.0628 34.1286 32.848 34.8983 33.8156 34.8983ZM46.7048 33.1772C46.7048 32.2244 47.4915 31.4554 48.4557 31.4554C49.4235 31.4554 50.2048 32.2244 50.2048 33.1772C50.2048 34.1286 49.4235 34.8983 48.4557 34.8983C47.4915 34.8983 46.7048 34.1286 46.7048 33.1772ZM69.8024 46.1476L73.8667 46.7626L73.9088 46.4943C74.0953 45.2986 73.5248 44.3399 72.2282 44.1435C70.9313 43.9473 70.0584 44.51 69.8713 45.7068L69.8024 46.1476ZM65.7268 45.1757L65.6722 45.5227L69.1133 46.0435L69.1674 45.6968C69.2979 44.8606 68.9734 43.893 67.6776 43.6969C66.381 43.5007 65.867 44.2783 65.7268 45.1757ZM64.6785 47.4678L65.0329 45.2001C65.4145 42.7597 66.1708 41.2783 68.0121 41.5565C69.0539 41.7143 69.6779 42.5331 69.8292 43.6683C70.3858 42.4153 71.3934 41.826 72.5626 42.0028C74.4034 42.2812 74.9918 43.9669 74.6104 46.4078L74.2191 48.9111L64.6785 47.4678ZM68.1227 60.1628C69.305 58.5852 68.4782 56.679 66.4188 55.1853C64.3594 53.6913 62.2647 53.4789 61.0827 55.056C59.9004 56.634 60.7266 58.5396 62.786 60.0335C64.8452 61.5267 66.9407 61.7405 68.1227 60.1628ZM60.4837 54.622C62.3768 52.0958 65.5545 51.6688 67.8212 53.313C70.0903 54.9589 70.615 58.0711 68.722 60.5974C66.8292 63.1239 63.6523 63.5512 61.3833 61.9053C59.1163 60.2613 58.591 57.1483 60.4837 54.622ZM41.1927 73.5846C43.1847 73.5804 44.2498 71.7923 44.2439 69.2744C44.2384 66.7574 43.1653 64.9747 41.1736 64.9791C39.1816 64.9833 38.1165 66.7711 38.1221 69.2882C38.1279 71.8052 39.2009 73.5888 41.1927 73.5846ZM41.1719 64.2477C44.3619 64.2407 46.6019 66.4989 46.6079 69.27C46.6141 72.0433 44.3846 74.3104 41.1944 74.3174C38.0044 74.3242 35.7647 72.0668 35.7584 69.2932C35.7522 66.5224 37.9819 64.2541 41.1719 64.2477ZM8.96461 52.0639C8.77974 51.3349 8.60057 50.6049 8.42707 49.8731C9.94555 49.5245 11.4652 49.1761 12.9836 48.8274C12.6412 47.3861 12.3227 45.9382 12.028 44.4862C10.4984 44.7873 8.96831 45.0881 7.43931 45.3892C7.29199 44.6636 7.15035 43.9381 7.0144 43.2108C10.179 42.638 13.3434 42.0649 16.5075 41.4918C16.634 42.1715 16.766 42.8498 16.9048 43.5273C15.5604 43.7912 14.2146 44.0567 12.8699 44.3211C13.1634 45.7639 13.4802 47.2016 13.8198 48.636C15.156 48.3291 16.4904 48.0232 17.8266 47.716C17.9884 48.399 18.1562 49.0815 18.3289 49.7618C15.2077 50.5285 12.086 51.296 8.96461 52.0639ZM65.1463 26.8503C65.6483 27.6985 66.1014 28.5738 66.5038 29.4714C67.466 28.4741 68.4168 27.4841 69.3542 26.4986C67.9285 26.5876 66.5226 26.7104 65.1463 26.8503ZM65.9126 30.0913C65.4421 29.0061 64.8969 27.9542 64.2815 26.9416C63.3548 27.0479 62.4225 27.1702 61.5397 27.3112C61.292 26.9332 61.0352 26.5618 60.7684 26.1961C64.5912 26.0106 68.5104 25.8055 71.6935 25.4392C71.8562 25.7576 72.0137 26.0794 72.1648 26.4037C69.7785 28.9843 67.3025 31.6054 64.7325 34.2578C64.5178 33.5163 64.2698 32.7854 63.9896 32.0679C64.6372 31.4067 65.2766 30.7472 65.9126 30.0913ZM15.9603 58.0023C16.5371 58.8026 17.15 59.5752 17.7979 60.3192C18.4807 59.1543 19.1716 57.9802 19.8723 56.8007C18.5211 57.1998 17.2191 57.6005 15.9603 58.0023ZM17.3832 61.0401C16.5954 60.1533 15.8582 59.2248 15.1742 58.2572C14.3334 58.5401 13.5007 58.8325 12.7163 59.1289C12.4663 58.7547 12.2242 58.3747 11.9902 57.988C15.2976 57.2538 18.9093 56.2984 21.9036 55.2471C22.1274 55.5278 22.3555 55.8043 22.5882 56.0777C20.9022 59.0889 19.2788 62.0497 17.712 64.9528C17.1397 64.4279 16.5877 63.8853 16.057 63.3229C16.4958 62.5645 16.9369 61.804 17.3832 61.0401ZM59.8389 18.1833L59.6319 18.004L56.7659 21.2116L56.9732 21.391C57.897 22.1901 59.1214 22.1244 59.9868 21.1556C60.8532 20.1863 60.7633 18.9825 59.8389 18.1833ZM64.972 17.8932L62.2089 15.1196L60.0798 17.5023L60.4325 17.8073C62.3179 19.4375 62.8713 21.2082 61.6407 22.5855C60.412 23.9611 58.5548 23.6497 56.6695 22.0192L54.736 20.3469L61.0966 13.2274L65.6344 17.1514L64.972 17.8932ZM49.1937 12.004C50.1712 14.1547 51.1286 16.3863 52.0589 18.6965C51.2654 18.3812 50.4611 18.0963 49.6476 17.8434C48.9437 16.0502 48.2242 14.3022 47.4969 12.6C47.2216 14.0892 46.9463 15.5785 46.6713 17.0668C45.977 16.9191 45.2771 16.794 44.5746 16.6913C44.8499 15.2024 45.1252 13.7129 45.4005 12.2248C44.1104 13.5648 42.813 14.9519 41.5109 16.3869C40.6594 16.3418 39.8047 16.3295 38.9484 16.3497C40.6457 14.5101 42.3403 12.7534 44.026 11.0789C43.0564 9.65795 42.0783 8.30276 41.0977 7.01669C41.6861 7.00997 42.2748 7.01865 42.8602 7.04327C43.7396 8.57475 44.6121 10.1655 45.4762 11.8162C45.7504 10.3329 46.0248 8.84898 46.2993 7.36591C47.0018 7.46804 47.7017 7.59368 48.3957 7.74115C48.1212 9.22422 47.8468 10.7084 47.5726 12.1915C48.9713 10.9463 50.3587 9.7598 51.7281 8.63071C52.2856 8.81148 52.8404 9.0068 53.3894 9.21694C52.0105 10.0822 50.6101 11.0106 49.1937 12.004ZM33.038 15.2362L26.9155 9.7959L29.2224 9.10306L33.4092 12.9929L34.1159 7.6337L35.4339 7.23803C35.4339 7.23803 34.6651 11.2009 34.2146 13.6838C33.91 15.3745 33.7539 17.6528 33.7539 17.6528L32.5301 18.0202L33.038 15.2362ZM20.2813 14.9114L20.0609 15.0748L22.6701 18.4861L22.8905 18.3227C23.8732 17.5954 24.0569 16.4023 23.2682 15.3708C22.4801 14.3405 21.2637 14.1838 20.2813 14.9114ZM25.0273 14.0685C26.1476 15.5329 25.4593 17.2574 23.4537 18.7424L23.0785 19.02L25.4451 22.1138L23.7634 23.3592L17.9699 15.7853L20.0271 14.2622C22.0325 12.7774 23.9079 12.6045 25.0273 14.0685ZM28.8026 62.0452L28.5571 61.921L26.5708 65.7173L26.8162 65.8416C27.9092 66.3948 29.0813 66.0388 29.6817 64.8913C30.2818 63.7443 29.8956 62.5987 28.8026 62.0452ZM31.6393 65.8824C30.7866 67.5121 28.9089 67.6529 26.6775 66.5227L26.2599 66.3111L24.4588 69.7538L22.5873 68.8063L26.9968 60.378L29.2858 61.5376C31.5173 62.6675 32.4917 64.2538 31.6393 65.8824ZM17.2538 31.9389C17.8135 30.4875 18.4975 29.0853 19.2984 27.748C17.0413 27.5079 14.8144 27.2829 12.6187 27.0734C14.1338 28.6818 15.6784 30.3045 17.2538 31.9389ZM17.8946 32.7899C17.7085 33.3034 17.7905 33.7712 18.2543 34.2657C18.229 34.3477 18.2037 34.4288 18.1778 34.5108C17.6619 34.2556 17.1454 34.0001 16.6295 33.7452C16.6872 33.5605 16.745 33.3769 16.805 33.1934C14.828 30.8132 12.313 28.1076 10.218 25.9591C10.3884 25.6076 10.5661 25.2595 10.751 24.9153C13.954 25.1806 17.2259 25.4814 20.5632 25.8253C20.6832 25.6591 20.8044 25.4943 20.9272 25.3306C21.4437 25.5858 21.9594 25.8407 22.4756 26.0962C22.4241 26.1659 22.3723 26.2358 22.3197 26.3047C21.6405 26.2339 21.2108 26.4474 20.9033 26.8993C19.6627 28.7369 18.6531 30.7141 17.8946 32.7899ZM53.614 70.7816C55.0588 70.1668 56.4678 69.474 57.8347 68.7103C56.1979 67.2815 54.5503 65.8343 52.8919 64.3691C53.1413 66.5263 53.3825 68.6628 53.614 70.7816ZM53.5805 71.7632C53.0665 71.9759 52.8143 72.3114 52.8578 72.9233C52.7764 72.9538 52.6965 72.9858 52.6158 73.0151C52.3518 72.5098 52.0882 72.0036 51.8242 71.4982C52.0068 71.4294 52.1883 71.3605 52.3695 71.2897C52.3495 68.5038 52.0185 64.9951 51.6209 62.0743C51.9744 61.9019 52.3259 61.7245 52.6746 61.5421C55.0807 63.5809 57.4635 65.5763 59.821 67.5289C59.9937 67.4201 60.168 67.3095 60.3392 67.1976C60.6032 67.703 60.8671 68.2083 61.1307 68.7142C61.0588 68.7618 60.9851 68.808 60.9126 68.8553C60.4371 68.463 60.0008 68.4702 59.5346 68.7559C57.6305 69.9066 55.641 70.9123 53.5805 71.7632Z" fill="#FEE4C1"/>
</svg>
