<svg width="108" height="29" viewBox="0 0 108 29" fill="none" xmlns="http://www.w3.org/2000/svg">
<path d="M89.1294 17.0871C89.1712 17.13 89.1921 17.173 89.1921 17.1945C89.1921 17.216 89.1712 17.259 89.1294 17.302L88.0425 18.4196C88.0007 18.4625 87.9798 18.484 87.938 18.484C87.9171 18.484 87.8753 18.4625 87.8335 18.4196L86.7676 17.2805C86.7258 17.2375 86.7049 17.216 86.7049 17.173C86.7049 17.1515 86.7258 17.1085 86.7676 17.0656L87.8544 15.948C87.8962 15.905 87.938 15.8835 87.9589 15.8835C87.9798 15.8835 88.0216 15.905 88.0634 15.948L89.1294 17.0871ZM77.3413 23.5562C77.174 23.5562 77.0277 23.4917 76.9023 23.3842C76.7978 23.2768 76.7142 23.1048 76.7142 22.9114L76.6724 21.7723C76.6724 21.6864 76.6306 21.6649 76.5679 21.7079C76.2962 21.9013 76.0036 22.0302 75.7319 22.0947C75.4393 22.1592 75.1676 22.1807 74.9167 22.1592C74.6659 22.1377 74.4151 22.0947 74.2061 22.0302C73.9971 21.9658 73.809 21.8798 73.6627 21.8153C73.5582 21.7508 73.4955 21.7079 73.5164 21.6649C73.5373 21.6219 73.5791 21.5789 73.6836 21.5359C73.809 21.4929 73.9553 21.4285 74.1225 21.3425C74.2897 21.2565 74.4569 21.1706 74.645 21.0631C74.8331 20.9556 75.0004 20.8267 75.1676 20.6977C75.3348 20.5688 75.4811 20.4183 75.6274 20.2679C75.7946 20.053 75.9409 19.881 76.0454 19.7306C76.1499 19.5801 76.2335 19.4082 76.2962 19.2792C76.3589 19.1503 76.4007 18.9998 76.4216 18.8709C76.4425 18.7419 76.4634 18.613 76.4634 18.4625C76.4634 18.3336 76.4634 18.1831 76.4634 17.9897C76.4634 17.7963 76.4425 17.6458 76.4425 17.5169C76.4425 17.3235 76.4634 17.1515 76.547 17.0011C76.6306 16.8506 76.7769 16.6787 76.9859 16.5068L78.7625 15.0023C78.8043 14.9808 78.8461 14.9593 78.8879 14.9378C78.9506 14.9164 78.9715 14.9593 78.9506 15.0668L78.8043 18.9354C78.8043 18.9569 78.8043 18.9999 78.8043 19.0213C78.8043 19.0643 78.8252 19.0858 78.867 19.0858C78.9088 19.0858 78.9715 19.0428 79.0551 18.9569C79.3269 18.5485 79.5986 18.1402 79.8703 17.7748C80.1629 17.4094 80.4764 17.0226 80.8317 16.6572C80.9362 16.5498 81.0825 16.4208 81.2079 16.2918C81.3333 16.1629 81.4796 16.0339 81.6469 15.9265C81.7932 15.819 81.9604 15.7331 82.1276 15.6471C82.2948 15.5826 82.4829 15.5396 82.671 15.5396C82.7755 15.5396 82.9009 15.5611 83.0472 15.6256C83.1726 15.6686 83.298 15.7545 83.4025 15.862C83.5279 15.9695 83.6115 16.1414 83.6533 16.3348C83.6951 16.5283 83.6951 16.7647 83.6742 17.0441C83.6742 17.2375 83.6533 17.4309 83.6533 17.6029C83.6533 17.7748 83.6324 17.9682 83.6324 18.1617C83.6324 18.3551 83.6115 18.5485 83.6115 18.7634C83.5906 18.9784 83.5906 19.1933 83.5697 19.4512C83.5488 19.7306 83.5697 19.967 83.6115 20.1604C83.6533 20.3538 83.7579 20.5258 83.9251 20.6332C84.1132 20.7407 84.364 20.8267 84.6775 20.8912C84.991 20.9556 85.3254 20.9986 85.6598 21.0416C85.9942 21.0846 86.3287 21.1061 86.6631 21.1061C86.9766 21.1061 87.2483 21.1276 87.4573 21.1276C88.1888 21.1276 88.8159 21.1276 89.3593 21.1061C89.9027 21.0846 90.3625 21.0631 90.7388 21.0201C91.115 20.9771 91.4285 20.9341 91.6584 20.8697C91.8883 20.8052 92.0764 20.7192 92.1809 20.6118C92.3272 20.5043 92.4317 20.3539 92.5153 20.1819C92.5989 19.9885 92.6616 19.7736 92.7034 19.5372C92.7452 19.3867 92.7871 19.3007 92.8289 19.2792C92.8707 19.2578 92.9125 19.3437 92.9543 19.5586C93.017 19.8166 93.0588 20.1174 93.1215 20.4183C93.1633 20.7407 93.2051 21.0416 93.2051 21.3425C93.2051 21.6649 93.1633 21.9443 93.1006 22.1592C93.0379 22.3311 92.9752 22.5031 92.8707 22.6535C92.7871 22.8254 92.6407 22.9759 92.4735 23.1048C92.3063 23.2338 92.0764 23.3413 91.8047 23.4272C91.533 23.5132 91.1777 23.5562 90.7597 23.5562L87.2483 23.5132C87.0811 23.5132 86.8721 23.5132 86.6422 23.5132C86.3914 23.5132 86.1406 23.5132 85.8479 23.5132C85.5762 23.5132 85.2836 23.4917 84.991 23.4702C84.6984 23.4487 84.4058 23.4272 84.1341 23.4057C83.8624 23.3627 83.6115 23.3198 83.3816 23.2768C83.1517 23.2123 82.9845 23.1478 82.8382 23.0404C82.5665 22.8684 82.3575 22.6535 82.2112 22.3956C82.0649 22.1377 81.9604 21.8798 81.8977 21.6219C81.835 21.364 81.7932 21.1061 81.7932 20.8697C81.7932 20.6333 81.7723 20.4183 81.7723 20.2679C81.7723 20.1174 81.7932 19.967 81.7932 19.838C81.7932 19.7091 81.7932 19.5801 81.8141 19.4297C81.8141 19.3007 81.835 19.1288 81.835 18.9569C81.835 18.7849 81.8559 18.57 81.8768 18.3336C81.8768 18.2691 81.8768 18.2261 81.8768 18.1617C81.8768 18.0972 81.835 18.0757 81.7723 18.0542C81.7305 18.0542 81.6678 18.0542 81.626 18.0972C81.5842 18.1187 81.5423 18.1617 81.5005 18.2046C81.1034 18.613 80.7481 19.0213 80.4346 19.3867C80.1211 19.7521 79.8285 20.1389 79.5568 20.5473C79.285 20.9341 79.0133 21.364 78.7625 21.8153C78.5117 22.2666 78.24 22.761 77.9474 23.3198C77.8847 23.4487 77.8011 23.5132 77.6966 23.5562C77.5294 23.5347 77.4249 23.5562 77.3413 23.5562ZM73.182 12.7027C73.2238 12.7457 73.2447 12.7671 73.2447 12.8101C73.2447 12.8316 73.2238 12.8746 73.182 12.9176L72.0951 14.0352C72.0533 14.0782 72.0324 14.0997 71.9906 14.0997C71.9697 14.0997 71.9279 14.0782 71.8861 14.0352L70.8202 12.9176C70.7784 12.8746 70.7575 12.8531 70.7575 12.8101C70.7575 12.7886 70.7784 12.7457 70.8202 12.7027L71.907 11.5851C71.9488 11.5421 71.9906 11.5206 72.0115 11.5206C72.0324 11.5206 72.0742 11.5421 72.116 11.5851L73.182 12.7027ZM71.8861 14.9808C71.9488 14.9378 71.9906 14.9164 72.0533 14.8949C72.116 14.8734 72.1369 14.9378 72.116 15.0668C72.0742 16.0769 72.0324 17.1085 71.9697 18.1617C71.907 19.2148 71.907 20.2679 71.9279 21.2995C71.9279 21.45 71.9488 21.6219 71.9488 21.7723C71.9697 21.9228 71.9906 22.0732 72.0324 22.1807C72.0742 22.3096 72.1578 22.4171 72.2623 22.5246C72.3668 22.632 72.5131 22.718 72.7013 22.761C72.8267 22.8039 72.973 22.8254 73.1402 22.8254C73.3074 22.8469 73.5164 22.8254 73.7463 22.804C73.8299 22.7825 73.8717 22.8039 73.8717 22.8469C73.8717 22.8899 73.8508 22.9329 73.7672 22.9759C73.5373 23.1263 73.2238 23.2338 72.8894 23.3413C72.534 23.4487 72.1578 23.4917 71.7398 23.4917C71.4472 23.4917 71.1546 23.4272 70.8411 23.2768C70.5275 23.1263 70.2767 22.9114 70.0468 22.6535C69.9005 22.4816 69.796 22.2666 69.7542 22.0517C69.6915 21.8368 69.6497 21.6004 69.6497 21.3855C69.6288 20.6977 69.6288 19.9885 69.6497 19.2363C69.6706 18.484 69.6706 17.7318 69.7124 16.9151C69.7124 16.8077 69.7333 16.7217 69.7542 16.6572C69.7751 16.5927 69.8378 16.5283 69.9214 16.4423L71.8861 14.9808ZM67.8104 5.97564C67.9149 5.88967 67.9567 5.93265 67.9567 6.0831C67.9358 6.31951 67.894 6.68488 67.8104 7.1792C67.7477 7.69501 67.685 8.29679 67.6014 9.04901C67.5178 9.77974 67.4551 10.6179 67.3715 11.5421C67.2879 12.4662 67.2252 13.4764 67.1625 14.551C67.1416 15.0023 67.1207 15.4537 67.1207 15.905C67.1207 16.3563 67.0998 16.7862 67.0998 17.173C67.0998 17.5599 67.0789 17.9038 67.0789 18.1617C67.0789 18.4411 67.0789 18.5915 67.0789 18.656C67.0789 18.8064 67.058 18.8924 67.0371 18.9354C67.0162 18.9784 66.9744 19.0213 66.9326 19.0428L65.2187 20.0745C65.1351 20.1389 65.0724 20.1604 65.0306 20.1389C64.9888 20.1174 64.9679 20.0745 64.9679 19.967C64.9261 19.6016 64.8634 19.2578 64.7589 18.9354C64.6544 18.613 64.5081 18.3121 64.32 18.0327C64.1319 17.7533 63.8811 17.5384 63.5466 17.3235C63.2122 17.13 62.8778 17.0226 62.5016 17.0226C62.1463 17.0226 61.8537 17.1085 61.582 17.2805C61.3311 17.4524 61.143 17.6244 61.0385 17.8178C60.9549 17.9682 60.8922 18.1402 60.8504 18.2906C60.8086 18.4411 60.7877 18.613 60.7877 18.7634C60.7877 19.1718 60.8713 19.5157 61.0385 19.8165C61.2057 20.1174 61.4147 20.3539 61.6865 20.5473C61.9582 20.7407 62.2926 20.8912 62.6688 20.9771C63.045 21.0631 63.4421 21.1061 63.8602 21.1061C64.2155 21.1061 64.6126 21.0846 65.0724 21.0201C65.5322 20.9556 65.9712 20.8697 66.431 20.7192C66.8699 20.5688 67.3088 20.3753 67.7268 20.1389C68.1448 19.881 68.4793 19.5586 68.751 19.1718C68.8346 19.0428 68.8973 18.9999 68.9391 19.0213C68.9809 19.0428 69.0018 19.1073 69.0018 19.2148C69.0227 19.881 68.8973 20.5258 68.6465 21.1276C68.3957 21.7508 67.9567 22.2666 67.3297 22.6965C67.058 22.8684 66.7654 23.0189 66.431 23.1048C66.0966 23.1908 65.7621 23.2768 65.4277 23.3198C65.0933 23.3627 64.7798 23.4057 64.4872 23.4057C64.1946 23.4057 63.9438 23.4272 63.7556 23.4272C63.0241 23.4272 62.418 23.3842 61.9582 23.2768C61.4774 23.1693 61.0385 23.0189 60.6623 22.804C60.3697 22.6535 60.098 22.4386 59.8681 22.2022C59.6173 21.9658 59.4083 21.7079 59.241 21.407C59.0738 21.1061 58.9275 20.8052 58.823 20.4613C58.7185 20.1174 58.6767 19.7736 58.6767 19.4297C58.6767 19.0858 58.6976 18.7849 58.7603 18.484C58.8021 18.1832 58.8648 17.9682 58.9484 17.7748C59.1574 17.2375 59.3874 16.8077 59.68 16.5068C59.9517 16.2059 60.2652 15.9695 60.5787 15.7975C60.8922 15.6471 61.2475 15.5396 61.582 15.4966C61.9373 15.4537 62.2926 15.4322 62.6479 15.4322C62.8151 15.4322 63.0032 15.4537 63.2122 15.4966C63.4212 15.5396 63.6093 15.6041 63.7975 15.6901C63.9856 15.776 64.1737 15.862 64.3618 15.991C64.529 16.0984 64.6962 16.2489 64.8425 16.4208C64.9052 16.4853 64.947 16.5068 64.9679 16.4853C64.9888 16.4638 64.9888 16.4208 64.9888 16.3563C65.0306 15.3462 65.0724 14.4435 65.1142 13.6483C65.156 12.8746 65.2187 12.1439 65.2605 11.5206C65.3023 10.8758 65.365 10.2956 65.4068 9.75825C65.4695 9.22095 65.5113 8.70514 65.574 8.18933C65.5949 8.08187 65.6158 7.9744 65.6367 7.88843C65.6576 7.80247 65.7203 7.7165 65.8248 7.63053L67.8104 5.97564ZM51.654 21.407C51.6749 21.364 51.6749 21.3425 51.654 21.2995C51.2987 20.9341 50.9643 20.6547 50.6717 20.4613C50.3791 20.2679 50.1073 20.1819 49.8565 20.1604C49.7311 20.1604 49.5848 20.1604 49.4594 20.1819C49.334 20.2034 49.2086 20.2464 49.1041 20.3109C48.9996 20.3753 48.916 20.4613 48.8533 20.5688C48.7906 20.6762 48.7488 20.8052 48.7488 20.9556C48.7488 21.1276 48.8115 21.278 48.916 21.3855C49.0205 21.4929 49.1668 21.6004 49.3131 21.6649C49.4594 21.7293 49.6266 21.7723 49.7938 21.8153C49.961 21.8368 50.1073 21.8583 50.2327 21.8583C50.4836 21.8583 50.7344 21.8153 50.9643 21.7508C51.1942 21.6864 51.445 21.5789 51.654 21.407ZM57.7989 19.5801C57.8198 19.5157 57.8407 19.4727 57.8825 19.4727C57.9243 19.4727 57.9452 19.5157 57.9452 19.6016C58.0079 19.8595 58.0706 20.1389 58.0915 20.4398C58.1124 20.7622 58.1333 21.0846 58.1333 21.407C58.1333 21.5789 58.1333 21.7293 58.1124 21.8798C58.0915 22.0087 58.0706 22.1592 58.0079 22.3096C57.9243 22.589 57.7989 22.8039 57.6108 22.9544C57.4227 23.1048 57.2346 23.2338 57.0047 23.3198C56.7747 23.4057 56.5448 23.4487 56.2731 23.4702C56.0223 23.4917 55.7715 23.5132 55.5207 23.5132C55.0191 23.5132 54.5383 23.4272 54.0994 23.2768C53.6605 23.1263 53.2425 22.8684 52.8245 22.546C52.7827 22.5246 52.7618 22.5246 52.72 22.546C52.4064 22.8469 52.0302 23.0833 51.6331 23.2768C51.2151 23.4702 50.7553 23.5562 50.2327 23.5562C49.9192 23.5562 49.5848 23.5132 49.2295 23.4272C48.8742 23.3413 48.5398 23.1478 48.2472 22.8469C48.0591 22.6535 47.8918 22.4386 47.7873 22.1807C47.6619 21.9228 47.5992 21.6434 47.5992 21.2995C47.5992 20.9341 47.6619 20.5688 47.7664 20.2249C47.8709 19.881 48.0382 19.5801 48.2472 19.3007C48.4562 19.0428 48.7279 18.8279 49.0414 18.656C49.3549 18.5055 49.7102 18.4196 50.1282 18.4196C50.5045 18.4196 50.8598 18.5055 51.236 18.699C51.5913 18.8709 51.9884 19.1933 52.4273 19.6446C52.4901 19.7091 52.5318 19.6876 52.5527 19.5801C52.5736 19.4297 52.5946 19.3007 52.5946 19.1933C52.5946 19.0858 52.5946 18.9569 52.5737 18.8279C52.5737 18.7634 52.5528 18.6775 52.5319 18.5485C52.511 18.4196 52.4482 18.2906 52.3855 18.1402C52.3019 17.9897 52.2183 17.8393 52.072 17.6888C51.9466 17.5384 51.7585 17.4094 51.5704 17.2805C51.445 17.216 51.2987 17.1515 51.0897 17.1085C50.8807 17.0656 50.6717 17.0441 50.4418 17.0441C49.961 17.0441 49.543 17.13 49.1877 17.3235C48.8324 17.5169 48.498 17.7533 48.1427 18.0757C48.08 18.1402 48.059 18.1187 48.059 18.0327C48.059 17.9038 48.0799 17.7533 48.1008 17.6029C48.1217 17.4309 48.1427 17.259 48.1845 17.1085C48.2263 16.9366 48.289 16.7862 48.3517 16.6357C48.4144 16.4853 48.5189 16.3563 48.6443 16.2489C48.9996 15.9695 49.3967 15.7975 49.8356 15.7116C50.2745 15.6256 50.7135 15.5826 51.1524 15.5826C51.7376 15.5826 52.281 15.7116 52.7827 15.948C53.2843 16.1844 53.7023 16.5712 54.0367 17.1085C54.1621 17.302 54.2457 17.5384 54.3293 17.8178C54.392 18.0972 54.4338 18.3766 54.4338 18.699C54.4338 19.0428 54.392 19.3867 54.3293 19.7306C54.2666 20.0745 54.1621 20.4183 54.0158 20.7837C53.9949 20.8482 53.9949 20.8912 54.0576 20.8912C54.3293 21.0201 54.6219 21.1276 54.9564 21.2135C55.2908 21.2995 55.5834 21.3425 55.8551 21.3425C55.9805 21.3425 56.1268 21.3425 56.2731 21.321C56.4194 21.2995 56.5657 21.278 56.6911 21.235C56.8165 21.192 56.9628 21.1276 57.0674 21.0416C57.1928 20.9556 57.2764 20.8482 57.36 20.7192C57.4645 20.5688 57.5272 20.3968 57.6108 20.2034C57.7153 19.924 57.778 19.7306 57.7989 19.5801ZM45.8853 18.0757C46.0108 18.2476 46.1571 18.4411 46.2825 18.6775C46.4079 18.9139 46.5333 19.1288 46.6378 19.3867C46.7423 19.6446 46.8259 19.881 46.9095 20.1389C46.9722 20.3968 47.014 20.6332 47.014 20.8482C47.014 21.2565 46.9304 21.6219 46.7423 21.9443C46.5542 22.2666 46.3243 22.5675 46.0317 22.804C45.5927 23.1693 45.112 23.4057 44.5895 23.5347C44.067 23.6421 43.5444 23.7066 43.0219 23.6851C42.7711 23.6851 42.5203 23.6636 42.2695 23.6421C42.0187 23.6206 41.7679 23.5777 41.4962 23.5132C41.2453 23.4487 40.9945 23.3413 40.7228 23.2123C40.472 23.0833 40.2212 22.9114 39.9495 22.6965C39.7405 22.5246 39.5315 22.3096 39.3434 22.0517C39.1343 21.7938 38.9671 21.5144 38.7999 21.1706C38.6327 20.8267 38.5073 20.4398 38.4028 20.01C38.2983 19.5801 38.2356 19.0643 38.2147 18.527C38.2147 18.2046 38.2147 17.7963 38.2147 17.3664C38.2356 16.9151 38.2356 16.4208 38.2774 15.905C38.2983 15.3677 38.3401 14.8089 38.361 14.2286C38.3819 13.6483 38.4237 13.068 38.4655 12.4877C38.4655 12.4448 38.4655 12.4233 38.4446 12.4233C38.4446 12.4018 38.4237 12.4233 38.3819 12.4877C37.943 13.0465 37.5877 13.5838 37.2951 14.1211C37.0025 14.6584 36.7516 15.1743 36.5844 15.6686C36.3963 16.1629 36.2709 16.6357 36.1873 17.0656C36.1037 17.4954 36.0619 17.8823 36.0619 18.2046C36.0619 18.3551 36.0619 18.527 36.0828 18.656C36.1037 18.8064 36.1246 18.9139 36.1664 18.9784C36.1873 19.0213 36.2082 19.0428 36.2291 19.0428C36.25 19.0428 36.2918 19.0428 36.3127 19.0428C36.5844 19.0428 36.7307 19.1288 36.8143 19.2792C36.877 19.4297 36.898 19.6231 36.8561 19.838C36.8143 20.053 36.7516 20.2679 36.6471 20.4828C36.5635 20.6977 36.4799 20.8697 36.4172 20.9771C36.3336 21.1061 36.2082 21.1706 36.041 21.1491C35.9156 21.1491 35.7484 21.1061 35.5603 21.0416C35.3513 20.9771 35.1423 20.8482 34.8915 20.6762C34.6616 20.5043 34.4107 20.2464 34.1599 19.924C33.9091 19.6016 33.6792 19.1718 33.4493 18.656C33.2194 18.1402 33.0313 17.4739 32.8432 16.7217C32.6551 15.9695 32.5506 15.0453 32.467 13.9707C32.4461 13.7558 32.4461 13.5409 32.4461 13.3044C32.4461 13.0895 32.4251 12.8746 32.4251 12.6812C32.4251 12.5522 32.4043 12.4663 32.3834 12.4663C32.3415 12.4663 32.3206 12.5307 32.2788 12.6597C32.0907 13.3904 31.9235 14.1641 31.7563 14.9808C31.61 15.7975 31.4637 16.5927 31.3174 17.3879C31.192 18.1832 31.0457 18.9569 30.9203 19.7091C30.7949 20.4613 30.6486 21.1491 30.5023 21.7723C30.4396 22.0087 30.356 22.2237 30.2515 22.4386C30.1469 22.6535 30.0006 22.8254 29.8543 22.9974C29.6871 23.1478 29.499 23.2768 29.2691 23.3842C29.0392 23.4702 28.7884 23.5132 28.4749 23.5132C28.2032 23.5132 27.9314 23.4917 27.6597 23.4272C27.388 23.3627 27.1372 23.2553 26.9282 23.1263C26.6983 22.9974 26.5311 22.804 26.3848 22.5675C26.2385 22.3311 26.1758 22.0517 26.1758 21.7293C26.1758 21.5359 26.2385 21.4929 26.3639 21.6004C26.4684 21.6864 26.5938 21.7723 26.761 21.8798C26.9282 21.9872 27.1163 22.0302 27.3253 22.0302C27.6179 22.0302 27.8478 21.9228 28.0151 21.6864C28.1823 21.4499 28.3286 21.0631 28.454 20.5043C28.454 20.4613 28.4958 20.3324 28.5376 20.0959C28.5794 19.8595 28.6421 19.5801 28.7048 19.2363C28.7675 18.8924 28.8511 18.527 28.9347 18.1187C29.0183 17.7103 29.1019 17.2805 29.1855 16.8721C29.2691 16.4423 29.3527 16.0339 29.4572 15.6471C29.5408 15.2602 29.6244 14.8949 29.6871 14.6155C29.8334 13.9707 29.9588 13.4119 30.0633 12.8961C30.1678 12.4018 30.2724 11.9504 30.356 11.5421C30.4396 11.1337 30.5232 10.7469 30.6068 10.3815C30.6904 10.0162 30.774 9.6293 30.8576 9.24244C30.8994 9.0705 30.9621 8.92006 31.0248 8.8126C31.0875 8.68365 31.2338 8.5332 31.4428 8.36126L33.4911 6.74936C33.6165 6.6419 33.721 6.59891 33.8046 6.6204C33.8882 6.64189 33.9509 6.70637 33.9927 6.77085C34.1599 7.09323 34.2853 7.60904 34.348 8.36126C34.4316 9.09199 34.4525 10.0591 34.4107 11.2197C34.3898 11.5636 34.3898 11.9504 34.4107 12.3803C34.4107 12.8101 34.4316 13.2185 34.4734 13.6268C34.4943 14.0352 34.5361 14.422 34.5779 14.8089C34.6198 15.1743 34.6615 15.4966 34.7243 15.7545C34.7661 15.9695 34.8288 15.9695 34.8915 15.7545C35.0587 15.2387 35.2886 14.7014 35.5394 14.0997C35.8111 13.4979 36.1037 12.8961 36.459 12.2728C36.7934 11.6496 37.1697 11.0263 37.5668 10.403C37.9639 9.77974 38.3819 9.17796 38.8208 8.61917C38.9462 8.46873 39.0716 8.29679 39.218 8.14634C39.3434 7.97441 39.4897 7.80247 39.636 7.65202C39.7823 7.50158 39.9077 7.32964 40.0331 7.20069C40.1585 7.05025 40.2839 6.92129 40.4093 6.81383C40.5974 6.6419 40.7437 6.59891 40.8691 6.66339C40.9945 6.72786 41.0363 6.85681 41.0154 7.05024C40.9736 7.63053 40.9318 8.2538 40.89 8.89857C40.8482 9.56482 40.8064 10.2311 40.7855 10.8973C40.7437 11.5851 40.7228 12.2513 40.681 12.9176C40.6601 13.5838 40.6183 14.2286 40.6183 14.8304C40.5974 15.4322 40.5974 15.991 40.5765 16.5068C40.5765 17.0226 40.5765 17.4524 40.5974 17.8178C40.6183 18.3766 40.6601 18.8279 40.7019 19.2148C40.7437 19.6016 40.8273 19.924 40.9318 20.2034C41.0363 20.4828 41.1826 20.6977 41.3498 20.8912C41.5171 21.0846 41.747 21.2565 42.0187 21.407C42.3113 21.5574 42.6039 21.6864 42.8965 21.7508C43.1891 21.8153 43.4817 21.8368 43.7326 21.8368C43.9416 21.8368 44.1297 21.8153 44.3178 21.7723C44.5059 21.7508 44.7149 21.6649 44.9448 21.5144C45.0493 21.45 45.1329 21.3425 45.1538 21.2135C45.1747 21.0846 45.1329 20.9771 45.0493 20.8482C44.9239 20.6762 44.7985 20.5258 44.6731 20.3968C44.5686 20.2894 44.4641 20.1819 44.3596 20.0745C44.2551 19.9885 44.1715 19.9025 44.0879 19.8165C44.0043 19.7521 43.9207 19.6661 43.8371 19.5586C43.7535 19.4727 43.7744 19.3652 43.8998 19.2792L45.53 18.1187C45.6554 17.9252 45.7808 17.9467 45.8853 18.0757ZM17.3765 21.2995C17.3765 21.45 17.3974 21.6219 17.3974 21.7723C17.4183 21.9228 17.4392 22.0732 17.481 22.2022C17.5228 22.3311 17.6064 22.4601 17.7109 22.546C17.8154 22.6535 17.9617 22.718 18.1498 22.7825C18.2752 22.8254 18.4215 22.8469 18.5887 22.8469C18.7559 22.8684 18.9649 22.8469 19.1949 22.8254C19.2785 22.8039 19.3203 22.8254 19.3203 22.8684C19.3203 22.9114 19.2994 22.9544 19.2158 22.9974C18.9858 23.1478 18.6932 23.2553 18.3588 23.3627C18.0244 23.4702 17.6482 23.5132 17.2302 23.5132C16.9376 23.5132 16.6449 23.4487 16.3732 23.2983C16.1015 23.1478 15.8507 22.9329 15.6417 22.675C15.4954 22.5031 15.3909 22.2881 15.3282 22.0732C15.2655 21.8583 15.2237 21.6219 15.2237 21.407C15.2237 21.1706 15.2028 20.8912 15.2028 20.5258C15.2028 20.1604 15.2028 19.7091 15.2028 19.1503C15.2028 18.613 15.2237 17.9467 15.2237 17.216C15.2446 16.4638 15.2655 15.6041 15.3073 14.6155C15.3282 14.0352 15.37 13.4549 15.3909 12.8746C15.4327 12.2943 15.4745 11.7355 15.5163 11.1982C15.5581 10.6609 15.5999 10.1451 15.6626 9.67228C15.7044 9.19946 15.7671 8.74812 15.8089 8.36126C15.8298 8.16783 15.8507 8.03888 15.8925 7.95291C15.9134 7.88844 15.9761 7.80247 16.0597 7.73799L18.0662 5.99713C18.1289 5.95415 18.1707 5.93265 18.1916 5.97564C18.2125 6.01862 18.2125 6.06161 18.1916 6.12609C18.1498 6.3625 18.108 6.72786 18.0453 7.24367C17.9826 7.75948 17.9199 8.38276 17.8363 9.13498C17.7527 9.8872 17.69 10.7254 17.6064 11.6496C17.5228 12.5952 17.4601 13.5838 17.4183 14.637C17.3974 14.9164 17.3974 15.2387 17.3765 15.6256C17.3556 16.0124 17.3556 16.4208 17.3556 16.8506C17.3556 17.2805 17.3347 17.7318 17.3347 18.1832C17.3347 18.6345 17.3138 19.0643 17.3138 19.4727C17.3138 19.881 17.3138 20.2464 17.3138 20.5688C17.3765 20.8697 17.3765 21.1061 17.3765 21.2995ZM7.84565 21.407C7.86655 21.364 7.86655 21.3425 7.84565 21.2995C7.49033 20.9341 7.15592 20.6547 6.8633 20.4613C6.57069 20.2679 6.29898 20.1819 6.04817 20.1604C5.92276 20.1604 5.77646 20.1604 5.65105 20.1819C5.52565 20.2034 5.40024 20.2464 5.29573 20.3109C5.19123 20.3753 5.10763 20.4613 5.04492 20.5688C4.98222 20.6762 4.94042 20.8052 4.94042 20.9556C4.94042 21.1276 5.00312 21.278 5.10763 21.3855C5.21213 21.4929 5.35844 21.6004 5.50474 21.6649C5.65105 21.7293 5.81826 21.7723 5.98547 21.8153C6.15267 21.8368 6.29898 21.8583 6.42438 21.8583C6.6752 21.8583 6.92601 21.8153 7.15592 21.7508C7.40673 21.6864 7.63664 21.5789 7.84565 21.407ZM14.0114 19.5801C14.0323 19.5157 14.0532 19.4727 14.095 19.4727C14.1368 19.4727 14.1577 19.5157 14.1577 19.6016C14.2204 19.8595 14.2831 20.1389 14.304 20.4398C14.3249 20.7622 14.3458 21.0846 14.3458 21.407C14.3458 21.5789 14.3458 21.7293 14.3249 21.8798C14.304 22.0087 14.2831 22.1592 14.2204 22.3096C14.1368 22.589 14.0114 22.8039 13.8233 22.9544C13.6561 23.1048 13.4471 23.2338 13.2172 23.3198C12.9873 23.4057 12.7574 23.4487 12.4857 23.4702C12.2348 23.4917 11.984 23.5132 11.7332 23.5132C11.2316 23.5132 10.7509 23.4272 10.312 23.2768C9.87304 23.1263 9.45502 22.8684 9.037 22.546C8.9952 22.5246 8.9743 22.5246 8.9325 22.546C8.61898 22.8469 8.24277 23.0833 7.84565 23.2768C7.42763 23.4702 6.96781 23.5562 6.44529 23.5562C6.13177 23.5562 5.79736 23.5132 5.44204 23.4272C5.08673 23.3413 4.75231 23.1478 4.4597 22.8469C4.27159 22.6535 4.10438 22.4386 3.99988 22.1807C3.87447 21.9228 3.81177 21.6434 3.81177 21.2995C3.81177 20.9341 3.87447 20.5688 3.97898 20.2249C4.08348 19.881 4.25069 19.5801 4.4597 19.3007C4.66871 19.0428 4.94042 18.8279 5.25393 18.656C5.56745 18.5055 5.92276 18.4196 6.34078 18.4196C6.717 18.4196 7.07231 18.5055 7.44853 18.699C7.80385 18.8709 8.20096 19.1933 8.63988 19.6446C8.70259 19.7091 8.74439 19.6876 8.76529 19.5801C8.78619 19.4297 8.80709 19.3007 8.80709 19.1933C8.80709 19.0858 8.80709 18.9569 8.78619 18.8279C8.78619 18.7634 8.76529 18.6775 8.74439 18.5485C8.72349 18.4196 8.66079 18.2906 8.59808 18.1402C8.51448 17.9897 8.43087 17.8393 8.28457 17.6888C8.15916 17.5384 7.97105 17.4094 7.78295 17.2805C7.65754 17.216 7.51123 17.1515 7.30222 17.1085C7.09322 17.0656 6.8842 17.0441 6.65429 17.0441C6.17357 17.0441 5.75555 17.13 5.40024 17.3235C5.04492 17.5169 4.71051 17.7533 4.35519 18.0757C4.29249 18.1402 4.27159 18.1187 4.27159 18.0327C4.27159 17.9038 4.29249 17.7533 4.31339 17.6029C4.33429 17.4309 4.35519 17.259 4.39699 17.1085C4.4388 16.9366 4.5015 16.7862 4.5642 16.6357C4.6269 16.4853 4.73141 16.3563 4.85681 16.2489C5.21213 15.9695 5.60925 15.7975 6.04817 15.7116C6.48709 15.6256 6.92601 15.5826 7.36493 15.5826C7.95015 15.5826 8.49358 15.7116 8.9952 15.948C9.49682 16.1844 9.91484 16.5712 10.2493 17.1085C10.3747 17.302 10.4583 17.5384 10.5419 17.8178C10.6046 18.0972 10.6464 18.3766 10.6464 18.699C10.6464 19.0428 10.6046 19.3867 10.5419 19.7306C10.4792 20.0745 10.3747 20.4183 10.2284 20.7837C10.2075 20.8482 10.2075 20.8912 10.2702 20.8912C10.5419 21.0201 10.8345 21.1276 11.1689 21.2135C11.5033 21.2995 11.7959 21.3425 12.0676 21.3425C12.193 21.3425 12.3393 21.3425 12.4857 21.321C12.632 21.2995 12.7783 21.278 12.9037 21.235C13.0291 21.192 13.1754 21.1276 13.2799 21.0416C13.4053 20.9556 13.4889 20.8482 13.5725 20.7192C13.677 20.5688 13.7606 20.3968 13.8233 20.2034C13.9069 19.924 13.9696 19.7306 14.0114 19.5801Z" fill="#372717"/>
<path d="M97.7824 21.407C97.8033 21.364 97.8033 21.3425 97.7824 21.2995C97.4271 20.9341 97.0927 20.6547 96.8001 20.4613C96.5074 20.2679 96.2357 20.1819 95.9849 20.1604C95.8595 20.1604 95.7132 20.1604 95.5878 20.1819C95.4624 20.2034 95.337 20.2464 95.2325 20.3109C95.128 20.3753 95.0444 20.4613 94.9817 20.5688C94.919 20.6762 94.8772 20.8052 94.8772 20.9556C94.8772 21.1276 94.9399 21.278 95.0444 21.3855C95.1489 21.4929 95.2952 21.6004 95.4415 21.6649C95.5878 21.7293 95.755 21.7723 95.9222 21.8153C96.0894 21.8368 96.2357 21.8583 96.3611 21.8583C96.612 21.8583 96.8628 21.8153 97.0927 21.7508C97.3435 21.6864 97.5734 21.5789 97.7824 21.407ZM103.948 19.5801C103.969 19.5157 103.99 19.4727 104.032 19.4727C104.074 19.4727 104.094 19.5157 104.094 19.6016C104.157 19.8595 104.22 20.1389 104.241 20.4398C104.262 20.7622 104.283 21.0846 104.283 21.407C104.283 21.5789 104.283 21.7293 104.262 21.8798C104.241 22.0087 104.22 22.1592 104.157 22.3096C104.074 22.589 103.948 22.8039 103.76 22.9544C103.593 23.1048 103.384 23.2338 103.154 23.3198C102.924 23.4057 102.694 23.4487 102.422 23.4702C102.172 23.4917 101.921 23.5132 101.67 23.5132C101.168 23.5132 100.688 23.4272 100.249 23.2768C99.8098 23.1263 99.3918 22.8684 98.9738 22.546C98.932 22.5246 98.9111 22.5246 98.8693 22.546C98.5557 22.8469 98.1795 23.0833 97.7824 23.2768C97.3644 23.4702 96.9046 23.5562 96.382 23.5562C96.0685 23.5562 95.7341 23.5132 95.3788 23.4272C95.0235 23.3413 94.6891 23.1478 94.3965 22.8469C94.2084 22.6535 94.0411 22.4386 93.9366 22.1807C93.8112 21.9228 93.7485 21.6434 93.7485 21.2995C93.7485 20.9341 93.8112 20.5688 93.9157 20.2249C94.0202 19.881 94.1874 19.5801 94.3965 19.3007C94.6055 19.0428 94.8772 18.8279 95.1907 18.656C95.5042 18.5055 95.8595 18.4196 96.2775 18.4196C96.6538 18.4196 97.0091 18.5055 97.3853 18.699C97.7406 18.8709 98.1377 19.1933 98.5766 19.6446C98.6393 19.7091 98.6811 19.6876 98.702 19.5801C98.7229 19.4297 98.7438 19.3007 98.7438 19.1933C98.7438 19.0858 98.7438 18.9569 98.7229 18.8279C98.7229 18.7634 98.702 18.6775 98.6811 18.5485C98.6602 18.4196 98.5975 18.2906 98.5348 18.1402C98.4512 17.9897 98.3676 17.8393 98.2213 17.6888C98.0959 17.5384 97.9078 17.4094 97.7197 17.2805C97.5943 17.216 97.448 17.1515 97.239 17.1086C97.03 17.0656 96.821 17.0441 96.5911 17.0441C96.1103 17.0441 95.6923 17.13 95.337 17.3235C94.9817 17.5169 94.6473 17.7533 94.292 18.0757C94.2293 18.1402 94.2083 18.1187 94.2083 18.0327C94.2083 17.9038 94.2292 17.7533 94.2501 17.6029C94.2711 17.4309 94.292 17.259 94.3338 17.1086C94.3756 16.9366 94.4383 16.7862 94.501 16.6357C94.5637 16.4853 94.6682 16.3563 94.7936 16.2489C95.1489 15.9695 95.546 15.7975 95.9849 15.7116C96.4238 15.6256 96.8837 15.5826 97.3017 15.5826C97.8869 15.5826 98.4303 15.7116 98.932 15.948C99.4336 16.1844 99.8516 16.5712 100.186 17.1086C100.311 17.302 100.395 17.5384 100.479 17.8178C100.541 18.0972 100.583 18.3766 100.583 18.699C100.583 19.0428 100.541 19.3867 100.479 19.7306C100.416 20.0745 100.311 20.4183 100.165 20.7837C100.144 20.8482 100.144 20.8912 100.207 20.8912C100.479 21.0201 100.771 21.1276 101.085 21.2135C101.419 21.2995 101.712 21.3425 101.983 21.3425C102.109 21.3425 102.255 21.3425 102.402 21.321C102.548 21.2995 102.694 21.278 102.82 21.235C102.945 21.192 103.091 21.1276 103.196 21.0416C103.321 20.9556 103.405 20.8482 103.488 20.7192C103.593 20.5688 103.656 20.3968 103.739 20.2034C103.844 19.924 103.906 19.7306 103.948 19.5801Z" fill="#372717"/>
</svg>
