<svg width="62" height="82" viewBox="0 0 62 82" fill="none" xmlns="http://www.w3.org/2000/svg">
<g clip-path="url(#clip0)">
<path fill-rule="evenodd" clip-rule="evenodd" d="M4.66382 54.95V28.2048C4.66382 14.105 16.7335 4.763 30.8635 4.763C44.9867 4.763 57.1677 14.0887 57.1677 28.2048V54.95C57.1677 68.5208 45.0431 77.339 30.9206 77.339C16.7899 77.339 4.66382 68.712 4.66382 54.95Z" fill="#FEFEFE"/>
<path fill-rule="evenodd" clip-rule="evenodd" d="M14.5439 38.3477C19.5581 35.8276 25.1046 34.4166 30.9525 34.4166C36.761 34.4166 42.2812 35.8125 47.2777 38.3061C47.7 37.7064 48.0927 37.0757 48.42 36.3804C50.8128 31.2571 49.4417 25.6361 45.3598 23.8201C43.6441 23.0639 41.7345 23.0979 39.917 23.7588C38.5962 19.1313 35.0517 15.8071 30.9018 15.8071C26.7448 15.8071 23.2037 19.1313 21.8855 23.7588C20.0619 23.0979 18.1478 23.0639 16.4423 23.8201C12.3522 25.6361 10.9829 31.2571 13.3712 36.3804C13.7064 37.0886 14.1099 37.7362 14.5439 38.3477Z" fill="#D52723"/>
<mask id="mask0" mask-type="alpha" maskUnits="userSpaceOnUse" x="0" y="0" width="62" height="82">
<path d="M0 0.377869H61.794V81.7009H0V0.377869Z" fill="white"/>
</mask>
<g mask="url(#mask0)">
<path fill-rule="evenodd" clip-rule="evenodd" d="M55.0613 53.9433C55.0613 66.526 45.3521 74.9686 30.9008 74.9686C23.9373 74.9686 17.9661 73.0429 13.631 69.3994C9.15533 65.6361 6.78994 60.2883 6.78994 53.9433V29.0947C6.78994 22.5944 9.15834 17.0547 13.6419 13.0748C17.9695 9.23369 24.1184 7.11831 30.9575 7.11831C37.6994 7.11831 43.8039 9.23029 48.1436 13.0646C52.6703 17.0626 55.0613 22.6065 55.0613 29.0947V53.9433ZM52.656 8.2085C46.9847 3.15926 39.258 0.377686 30.9008 0.377686C22.5188 0.377686 14.7921 3.13659 9.13993 8.14879C3.16087 13.4501 0 20.6937 0 29.0947V54.1149C0 62.259 3.16914 69.243 9.16397 74.3134C14.8041 79.0784 22.5432 81.7009 30.9575 81.7009C39.308 81.7009 47.0061 79.0784 52.6342 74.3134C58.6257 69.2343 61.7941 62.2514 61.7941 54.1149V29.0947C61.7941 20.8747 58.5479 13.4569 52.656 8.2085Z" fill="#FFD100"/>
</g>
<path fill-rule="evenodd" clip-rule="evenodd" d="M52.26 53.2341C52.26 59.2514 50.1107 64.1786 46.0457 67.4696C42.2919 70.5085 37.0636 72.1126 30.9294 72.1126C24.1917 72.1126 18.3629 69.9791 14.5152 66.105C11.2513 62.8137 9.52924 58.3611 9.53449 53.2352V29.9563C9.53449 23.8116 11.6331 18.6947 15.6022 15.1536C19.4038 11.7662 24.6824 9.97396 30.8715 9.97396C36.7995 9.97396 42.1736 11.8275 46.0021 15.1959C50.0964 18.7967 52.26 23.9004 52.26 29.9563V53.2341ZM46.6669 14.4314C42.6541 10.9017 37.0437 8.95746 30.8715 8.95746C24.4322 8.95746 18.9205 10.8374 14.933 14.3944C10.7396 18.1324 8.5237 23.5119 8.5237 29.9563V53.2341C8.5177 58.6359 10.3424 63.339 13.8001 66.8226C17.8402 70.889 23.9219 73.1287 30.9294 73.1287C37.297 73.1287 42.7451 71.4464 46.68 68.262C50.9915 64.7715 53.2701 59.5715 53.2701 53.2341V29.9563C53.2701 23.5988 50.9873 18.2303 46.6669 14.4314Z" fill="#28357E"/>
<path fill-rule="evenodd" clip-rule="evenodd" d="M15.8844 44.2306H16.589C17.5058 44.2306 18.3253 44.7291 18.3253 45.9961C18.3253 47.2159 17.4352 47.5465 16.5739 47.5465H15.8844V44.2306ZM15.8844 48.8589H17.6603C19.2974 48.8589 20.9609 48.2554 20.9609 45.9817C20.9609 43.7931 19.1283 42.9186 17.4352 42.9186H13.2458V52.9778H15.8844V48.8589Z" fill="#28357E"/>
<path fill-rule="evenodd" clip-rule="evenodd" d="M26.5356 47.939C25.2798 47.939 24.2341 47.6525 24.2341 46.1316C24.2341 45.0157 24.8838 44.2308 26.4075 44.2308H26.9561V52.978H29.5958V42.9188H25.5616C23.6967 42.9188 21.5978 43.6591 21.5978 46.0261C21.5978 47.5618 22.6837 48.2859 23.8113 48.6006L21.541 52.978H24.5024L26.7881 47.908C26.7445 47.9246 26.619 47.939 26.5356 47.939Z" fill="#28357E"/>
<path fill-rule="evenodd" clip-rule="evenodd" d="M33.5195 51.6657V48.3442H34.2106C35.0714 48.3442 35.9616 48.7508 35.9616 49.8984C35.9616 51.1688 35.1409 51.6657 34.2241 51.6657H33.5195ZM38.5972 49.9725C38.5972 47.8178 36.7774 47.0356 35.2108 47.0356H33.5195V44.274H37.1591V42.9189H30.8813V52.9781H35.0714C36.7635 52.9781 38.5972 52.1634 38.5972 49.9725Z" fill="#28357E"/>
<path fill-rule="evenodd" clip-rule="evenodd" d="M41.6023 48.7238L42.7717 45.1487L43.9982 48.7238H41.6023ZM42.1934 42.9189L38.8093 52.978H40.1628L41.1785 49.9871H44.4205L45.4512 52.978H48.2859L44.8455 42.9189H42.1934Z" fill="#28357E"/>
<path fill-rule="evenodd" clip-rule="evenodd" d="M15.8056 56.6284C16.1108 56.2947 16.4245 55.9686 16.7511 55.6561L16.7841 55.6243V55.4188H15.9157L15.8838 55.4596C15.3844 56.0925 14.8726 56.7156 14.3481 57.3282V55.4188H13.1396V60.2054H14.3481V58.3284L15.6245 60.2054H16.9168V59.9764L15.0932 57.4332C15.3239 57.1597 15.5644 56.8925 15.8056 56.6284Z" fill="#28357E"/>
<path fill-rule="evenodd" clip-rule="evenodd" d="M31.807 59.0517C31.7653 58.7578 31.7251 58.463 31.6897 58.1686C31.6443 57.787 31.6003 57.4053 31.5575 57.0237C31.5007 56.5203 31.4425 56.017 31.3846 55.514L31.3737 55.4188H30.6429L30.6151 55.483C30.4986 55.7498 30.3753 56.0136 30.2495 56.2758C30.1123 56.5611 29.9729 56.8457 29.8297 57.1283C29.6772 57.431 29.5235 57.7329 29.3691 58.0345C29.3022 58.1649 29.2357 58.2952 29.1688 58.426C29.0741 58.2344 28.9786 58.0432 28.8832 57.8516C28.7385 57.5625 28.5939 57.2727 28.4507 56.9821C28.3293 56.7361 28.2087 56.489 28.0892 56.2415C27.9679 55.989 27.8491 55.7347 27.7308 55.4808L27.7018 55.4188H26.9969L26.9845 55.5114C26.8631 56.3971 26.7421 57.2833 26.614 58.1679C26.5216 58.8069 26.419 59.444 26.3018 60.0784L26.2781 60.2054H27.1341L27.1367 60.1004C27.1562 59.2252 27.2581 58.3145 27.3689 57.4367C27.4429 57.5875 27.5169 57.7382 27.5906 57.8894C27.7176 58.149 27.8439 58.4093 27.9724 58.6686C28.093 58.9119 28.2102 59.1572 28.3282 59.4017C28.4424 59.6386 28.5567 59.8767 28.6656 60.1159L28.6942 60.1782H29.0827L29.1113 60.1162C29.224 59.8725 29.3371 59.6284 29.4513 59.3854C29.5791 59.1141 29.7072 58.8435 29.8361 58.5734C29.9646 58.3047 30.0961 58.0368 30.2284 57.7696L30.4201 57.3823C30.4377 57.5584 30.4561 57.7345 30.4753 57.9102C30.4997 58.1392 30.5238 58.3682 30.5478 58.5975C30.5737 58.8413 30.5963 59.085 30.6162 59.3291C30.6376 59.5868 30.6545 59.8453 30.6669 60.103L30.6718 60.2054H31.9881L31.967 60.08C31.9088 59.738 31.8558 59.3949 31.807 59.0517Z" fill="#28357E"/>
<path fill-rule="evenodd" clip-rule="evenodd" d="M35.629 55.3884C35.3889 55.3325 35.1424 55.2989 34.8959 55.2989C34.5344 55.2989 34.1748 55.3461 33.8303 55.4576C33.5075 55.5619 33.2118 55.7228 32.954 55.9454C32.6891 56.1737 32.4959 56.4593 32.3599 56.7813C32.2055 57.1471 32.1465 57.5454 32.1465 57.941C32.1465 58.2743 32.2066 58.6004 32.343 58.905C32.4741 59.1963 32.6586 59.4484 32.8976 59.6581C33.1426 59.8723 33.4244 60.0288 33.7307 60.135C34.0591 60.2483 34.4029 60.2986 34.7497 60.2986C35.2213 60.2986 35.6895 60.2162 36.1122 59.9997L36.1554 59.9781L36.3343 59.2681L36.0991 59.1634L36.0476 59.2133C35.8969 59.3596 35.7158 59.4691 35.5238 59.5511C35.3374 59.6305 35.1383 59.6838 34.9346 59.6838C34.6494 59.6838 34.3774 59.6203 34.1395 59.4578C33.9073 59.2991 33.7453 59.0799 33.6367 58.8207C33.5086 58.5139 33.4613 58.1794 33.4613 57.8488C33.4613 57.6066 33.4898 57.3662 33.5481 57.1312C33.6025 56.9098 33.6897 56.6997 33.813 56.5073C33.9295 56.3259 34.0779 56.1797 34.2635 56.0716C34.4593 55.9571 34.678 55.9137 34.9027 55.9137C35.1026 55.9137 35.2897 55.9707 35.464 56.0678C35.6459 56.1695 35.7977 56.3063 35.9153 56.4797L35.9469 56.5266H36.1806L36.1998 56.4438C36.2261 56.3331 36.2486 56.2213 36.2723 56.1102C36.2967 55.993 36.323 55.8755 36.352 55.7591L36.3723 55.6798L36.3009 55.6397C36.0923 55.5214 35.8616 55.4425 35.629 55.3884Z" fill="#28357E"/>
<path fill-rule="evenodd" clip-rule="evenodd" d="M47.446 56.0003V57.5753C47.4265 57.5757 47.407 57.5761 47.3882 57.5761C46.8272 57.5761 46.6171 57.2613 46.6171 56.7205C46.6171 56.6155 46.628 56.5104 46.6475 56.4069C46.6712 56.2788 46.7227 56.1435 46.8471 56.0849C46.9902 56.0166 47.1706 56.0003 47.3273 56.0003H47.446ZM42.0836 58.1958L42.5458 57.0406L42.9847 58.1958H42.0836ZM46.0133 55.5627C45.5917 55.7845 45.3752 56.1378 45.3752 56.6128C45.3752 56.8282 45.4166 57.0387 45.5158 57.2307C45.6097 57.4124 45.7435 57.5617 45.9122 57.677C46.0482 57.7703 46.1974 57.8383 46.3541 57.8852C46.2725 58.025 46.1891 58.164 46.105 58.302C45.9618 58.5351 45.8145 58.7664 45.6668 58.9965C45.5304 59.2085 45.3952 59.4216 45.2595 59.634L44.9976 60.0444L43.1248 55.359H42.477L40.6429 59.8286L38.9257 57.4332C39.1561 57.1596 39.3969 56.8925 39.6382 56.6283C39.9587 56.2773 40.292 55.9323 40.6354 55.6035L40.8282 55.4187H39.7483L39.7163 55.4596C39.2169 56.0925 38.7052 56.716 38.1806 57.3282V55.4187H36.9722V60.2091L37.0826 60.205C37.4152 60.1929 37.7372 60.1921 38.0698 60.205L38.1806 60.2095V58.3284L39.4567 60.2053H40.7493V60.1985H41.3629L41.3836 60.1188C41.4185 59.9877 41.4606 59.8569 41.5038 59.7281C41.5605 59.5558 41.6203 59.3842 41.6815 59.2134C41.7289 59.0815 41.7762 58.9497 41.8217 58.817H43.2188C43.386 59.241 43.5254 59.6963 43.6603 60.1301L43.6836 60.2053H46.3477L47.1736 58.7562C47.2593 58.5956 47.3525 58.4361 47.446 58.2785V60.2053H48.6548V55.4187H47.1345C46.826 55.4187 46.2955 55.4278 46.0133 55.5627Z" fill="#28357E"/>
<mask id="mask1" mask-type="alpha" maskUnits="userSpaceOnUse" x="0" y="0" width="62" height="82">
<path d="M0 81.7011H61.7941V0.377869H0V81.7011Z" fill="white"/>
</mask>
<g mask="url(#mask1)">
<path fill-rule="evenodd" clip-rule="evenodd" d="M24.5288 60.2054H25.7372V55.4188H24.5288V60.2054Z" fill="#28357E"/>
<path fill-rule="evenodd" clip-rule="evenodd" d="M19.0914 57.2993C19.0038 57.4478 18.8715 57.5335 18.7081 57.5781C18.6149 57.5997 18.5074 57.6095 18.4045 57.6159V56.0001H18.7096C18.8633 56.0001 18.9749 56.0783 19.0636 56.2008C19.1834 56.3667 19.2203 56.5741 19.2203 56.7751C19.2203 56.9595 19.1853 57.1394 19.0914 57.2993ZM18.9362 55.4185H17.196V60.2052H18.4045V58.21C18.7445 58.2047 19.097 58.1733 19.4239 58.0856C19.7249 58.0055 19.9887 57.8536 20.1841 57.6072C20.3975 57.3389 20.4618 56.9898 20.4618 56.6538C20.4618 56.2884 20.3532 55.954 20.0604 55.7243C19.7497 55.4805 19.3191 55.4185 18.9362 55.4185Z" fill="#28357E"/>
<path fill-rule="evenodd" clip-rule="evenodd" d="M22.7749 59.2691C22.6881 59.4172 22.5524 59.5019 22.3901 59.5476C22.2958 59.5744 22.1891 59.5854 22.0869 59.5896V57.9692H22.3931C22.546 57.9692 22.6569 58.0482 22.7448 58.1699C22.8647 58.3354 22.9026 58.5421 22.9026 58.7431C22.9026 58.9271 22.8688 59.1096 22.7749 59.2691ZM22.6178 57.3876H22.0869V55.3921H20.8784V60.1783H22.3191C22.7707 60.1783 23.2337 60.0963 23.6166 59.8427C24.0273 59.5703 24.1445 59.0926 24.1445 58.6229C24.1445 58.2575 24.0359 57.9227 23.7428 57.693C23.4313 57.4492 23.0014 57.3876 22.6178 57.3876Z" fill="#28357E"/>
</g>
</g>
<defs>
<clipPath id="clip0">
<rect width="62" height="82" fill="white"/>
</clipPath>
</defs>
</svg>
