<svg width="230" height="225" viewBox="0 0 230 225" fill="none" xmlns="http://www.w3.org/2000/svg">
<path d="M8.064 141.104C8.064 140.101 7.89333 139.429 7.552 139.088C7.232 138.725 6.79467 138.544 6.24 138.544C5.68533 138.544 5.23733 138.715 4.896 139.056C4.55467 139.376 4.384 139.941 4.384 140.752V142.576H1.152V140.912C1.152 139.099 1.57867 137.723 2.432 136.784C3.30667 135.824 4.608 135.344 6.336 135.344C8.064 135.344 9.36533 135.835 10.24 136.816C11.136 137.776 11.584 139.163 11.584 140.976V141.552C11.584 143.941 10.7627 145.477 9.12 146.16C10.016 146.544 10.6453 147.141 11.008 147.952C11.392 148.741 11.584 149.712 11.584 150.864V152.624C11.584 154.437 11.136 155.835 10.24 156.816C9.36533 157.776 8.064 158.256 6.336 158.256C4.608 158.256 3.296 157.776 2.4 156.816C1.52533 155.835 1.088 154.437 1.088 152.624V150.16H4.416V152.848C4.416 153.659 4.576 154.235 4.896 154.576C5.23733 154.896 5.68533 155.056 6.24 155.056C6.79467 155.056 7.232 154.885 7.552 154.544C7.89333 154.203 8.064 153.531 8.064 152.528V150.768C8.064 149.723 7.88267 148.987 7.52 148.56C7.15733 148.133 6.57067 147.92 5.76 147.92H4.896V144.72H5.952C6.61333 144.72 7.12533 144.549 7.488 144.208C7.872 143.867 8.064 143.248 8.064 142.352V141.104ZM25.3595 158H21.8075L21.1995 153.936H16.8795L16.2715 158H13.0395L16.6235 135.6H21.7755L25.3595 158ZM17.3275 150.896H20.7195L19.0235 139.568L17.3275 150.896ZM27.0308 158V135.6H36.3108V138.8H30.5508V158H27.0308ZM43.8703 135.6C45.6409 135.6 46.9529 136.069 47.8063 137.008C48.6809 137.947 49.1183 139.323 49.1183 141.136V144.048C49.1183 145.861 48.6809 147.237 47.8063 148.176C46.9529 149.115 45.6409 149.584 43.8703 149.584H42.2063V158H38.6863V135.6H43.8703ZM42.2063 138.8V146.384H43.8703C44.4249 146.384 44.8516 146.235 45.1503 145.936C45.4489 145.637 45.5983 145.083 45.5983 144.272V140.912C45.5983 140.101 45.4489 139.547 45.1503 139.248C44.8516 138.949 44.4249 138.8 43.8703 138.8H42.2063ZM58.5568 152.304C58.3434 153.307 58.0768 154.192 57.7568 154.96C57.4581 155.707 57.0421 156.325 56.5088 156.816C55.9968 157.285 55.3248 157.627 54.4928 157.84C53.6821 158.053 52.6688 158.117 51.4528 158.032V154.896C52.3488 154.96 53.0528 154.875 53.5648 154.64C54.0768 154.405 54.4074 153.883 54.5568 153.072L54.5888 152.88L49.7248 135.6H53.2128L55.1328 143.248L56.2208 148.496L57.0528 143.28L58.6528 135.6H62.3328L58.5568 152.304ZM70.5953 141.104C70.5953 140.101 70.4246 139.429 70.0833 139.088C69.7633 138.725 69.3259 138.544 68.7713 138.544C68.2166 138.544 67.7686 138.715 67.4273 139.056C67.0859 139.376 66.9153 139.941 66.9153 140.752V142.576H63.6833V140.912C63.6833 139.099 64.1099 137.723 64.9633 136.784C65.8379 135.824 67.1393 135.344 68.8673 135.344C70.5953 135.344 71.8966 135.835 72.7713 136.816C73.6673 137.776 74.1153 139.163 74.1153 140.976V141.552C74.1153 143.941 73.2939 145.477 71.6513 146.16C72.5473 146.544 73.1766 147.141 73.5393 147.952C73.9233 148.741 74.1153 149.712 74.1153 150.864V152.624C74.1153 154.437 73.6673 155.835 72.7713 156.816C71.8966 157.776 70.5953 158.256 68.8673 158.256C67.1393 158.256 65.8273 157.776 64.9313 156.816C64.0566 155.835 63.6193 154.437 63.6193 152.624V150.16H66.9473V152.848C66.9473 153.659 67.1073 154.235 67.4273 154.576C67.7686 154.896 68.2166 155.056 68.7713 155.056C69.3259 155.056 69.7633 154.885 70.0833 154.544C70.4246 154.203 70.5953 153.531 70.5953 152.528V150.768C70.5953 149.723 70.4139 148.987 70.0513 148.56C69.6886 148.133 69.1019 147.92 68.2913 147.92H67.4273V144.72H68.4833C69.1446 144.72 69.6566 144.549 70.0193 144.208C70.4033 143.867 70.5953 143.248 70.5953 142.352V141.104ZM80.1148 158H76.4988V135.6H79.6348V149.776L80.9148 144.848L83.7948 135.6H87.6668V158H84.4988V142.224L83.0588 147.728L80.1148 158ZM89.131 135.6H100.011V138.8H96.331V158H92.811V138.8H89.131V135.6ZM101.561 158V135.6H105.081V144.016H106.745C108.516 144.016 109.828 144.485 110.681 145.424C111.556 146.363 111.993 147.739 111.993 149.552V152.464C111.993 154.277 111.556 155.653 110.681 156.592C109.828 157.531 108.516 158 106.745 158H101.561ZM106.745 154.8C107.3 154.8 107.727 154.651 108.025 154.352C108.324 154.053 108.473 153.499 108.473 152.688V149.328C108.473 148.517 108.324 147.963 108.025 147.664C107.727 147.365 107.3 147.216 106.745 147.216H105.081V154.8H106.745ZM125.333 155.472H124.021C122.251 155.472 120.928 155.003 120.053 154.064C119.2 153.125 118.773 151.749 118.773 149.936V143.824C118.773 142.011 119.2 140.635 120.053 139.696C120.928 138.757 122.251 138.288 124.021 138.288H125.333V135.6H128.789V138.288H130.101C131.872 138.288 133.184 138.757 134.037 139.696C134.912 140.635 135.349 142.011 135.349 143.824V149.936C135.349 151.749 134.912 153.125 134.037 154.064C133.184 155.003 131.872 155.472 130.101 155.472H128.789V158H125.333V155.472ZM128.789 141.392V152.4H130.101C130.656 152.4 131.083 152.229 131.381 151.888C131.701 151.547 131.861 150.971 131.861 150.16V143.6C131.861 142.789 131.701 142.224 131.381 141.904C131.083 141.563 130.656 141.392 130.101 141.392H128.789ZM125.333 141.392H124.021C123.467 141.392 123.029 141.563 122.709 141.904C122.411 142.224 122.261 142.789 122.261 143.6V150.16C122.261 150.971 122.411 151.547 122.709 151.888C123.029 152.229 123.467 152.4 124.021 152.4H125.333V141.392ZM140.95 152.848C140.95 153.659 141.11 154.235 141.43 154.576C141.771 154.896 142.219 155.056 142.774 155.056C143.328 155.056 143.766 154.896 144.086 154.576C144.427 154.235 144.598 153.659 144.598 152.848V140.752C144.598 139.941 144.427 139.376 144.086 139.056C143.766 138.715 143.328 138.544 142.774 138.544C142.219 138.544 141.771 138.715 141.43 139.056C141.11 139.376 140.95 139.941 140.95 140.752V152.848ZM137.43 140.976C137.43 139.163 137.888 137.776 138.806 136.816C139.723 135.835 141.046 135.344 142.774 135.344C144.502 135.344 145.824 135.835 146.742 136.816C147.659 137.776 148.118 139.163 148.118 140.976V152.624C148.118 154.437 147.659 155.835 146.742 156.816C145.824 157.776 144.502 158.256 142.774 158.256C141.046 158.256 139.723 157.776 138.806 156.816C137.888 155.835 137.43 154.437 137.43 152.624V140.976ZM149.381 135.6H160.261V138.8H156.581V158H153.061V138.8H149.381V135.6ZM165.043 152.848C165.043 153.659 165.203 154.235 165.523 154.576C165.865 154.896 166.313 155.056 166.867 155.056C167.422 155.056 167.859 154.896 168.179 154.576C168.521 154.235 168.691 153.659 168.691 152.848V140.752C168.691 139.941 168.521 139.376 168.179 139.056C167.859 138.715 167.422 138.544 166.867 138.544C166.313 138.544 165.865 138.715 165.523 139.056C165.203 139.376 165.043 139.941 165.043 140.752V152.848ZM161.523 140.976C161.523 139.163 161.982 137.776 162.899 136.816C163.817 135.835 165.139 135.344 166.867 135.344C168.595 135.344 169.918 135.835 170.835 136.816C171.753 137.776 172.211 139.163 172.211 140.976V152.624C172.211 154.437 171.753 155.835 170.835 156.816C169.918 157.776 168.595 158.256 166.867 158.256C165.139 158.256 163.817 157.776 162.899 156.816C161.982 155.835 161.523 154.437 161.523 152.624V140.976ZM190.156 135.6V158H186.635V148.976C186.252 149.403 185.772 149.723 185.196 149.936C184.641 150.128 184.118 150.224 183.628 150.224C182.177 150.224 181.078 149.755 180.332 148.816C179.606 147.856 179.243 146.608 179.243 145.072V135.6H182.764V144.784C182.764 145.531 182.966 146.085 183.372 146.448C183.777 146.811 184.257 146.992 184.812 146.992C185.366 146.992 185.804 146.8 186.124 146.416C186.465 146.011 186.635 145.435 186.635 144.688V135.6H190.156ZM196.269 145.04H201.101V148.24H196.269V154.8H202.349V158H192.749V135.6H202.349V138.8H196.269V145.04ZM209.138 149.072L208.05 151.12V158H204.53V135.6H208.05V145.36L212.658 135.6H216.178L211.282 145.584L216.178 158H212.562L209.138 149.072ZM229.172 158H225.62L225.012 153.936H220.692L220.084 158H216.852L220.436 135.6H225.588L229.172 158ZM221.14 150.896H224.532L222.836 139.568L221.14 150.896Z" fill="#372717"/>
<g opacity="0.3">
<path d="M148.958 26.2944C148.08 11.8326 135.715 0.272736 120.807 0.272736C111.757 0.272736 102.993 4.55183 97.5633 11.5337C97.44 11.471 97.3083 11.4292 97.1833 11.3698C96.8533 11.2155 96.5183 11.0677 96.175 10.9375C95.9833 10.8652 95.7917 10.7993 95.5983 10.7335C95.2617 10.6194 94.9217 10.5197 94.5733 10.4282C94.38 10.3783 94.1883 10.3269 93.9917 10.2835C93.6183 10.2016 93.2383 10.1389 92.8533 10.0843C92.6833 10.0602 92.5167 10.028 92.345 10.0088C91.795 9.95092 91.235 9.91396 90.6667 9.91396C82.3967 9.91396 75.6667 16.4009 75.6667 24.3758C75.6667 24.5831 75.6783 24.7855 75.6933 24.988C68.7617 28.6308 64 36.265 64 43.9057C64 55.2872 73.6033 64.5475 85.4083 64.5475H94C94.92 64.5475 95.6667 63.8293 95.6667 62.9407C95.6667 62.0521 94.92 61.3338 94 61.3338H85.4083C75.4417 61.3338 67.3333 53.5164 67.3333 43.9057C67.3333 37.2308 71.8417 30.3019 78.0533 27.4304L79 26.995V25.9827C79 25.785 79.0133 25.5826 79.025 25.3801L79.04 25.0989L79.02 24.7968C79.0117 24.657 79 24.5172 79 24.3758C79 18.1749 84.2333 13.1277 90.6667 13.1277C91.1817 13.1277 91.69 13.1711 92.195 13.2354C92.325 13.2514 92.4533 13.2723 92.5817 13.2932C93.0283 13.3639 93.4683 13.4571 93.9017 13.5776C93.9583 13.5937 94.0167 13.6033 94.0717 13.6194C94.5483 13.7592 95.0133 13.9376 95.4683 14.1368C95.5833 14.1866 95.6967 14.2413 95.81 14.2959C96.2133 14.4871 96.6083 14.6992 96.9883 14.937C100.2 16.944 102.333 20.4213 102.333 24.3758C102.333 25.2644 103.08 25.9827 104 25.9827C104.92 25.9827 105.667 25.2644 105.667 24.3758C105.667 19.9505 103.59 15.9895 100.333 13.335C105.11 7.30922 112.98 3.48648 120.807 3.48648C133.713 3.48648 144.437 13.3446 145.553 25.8011C143.85 25.6854 141.298 25.6259 138.748 26.0019C137.838 26.1353 137.213 26.9548 137.352 27.8322C137.477 28.6276 138.187 29.198 138.997 29.198C139.08 29.198 139.165 29.1916 139.25 29.1787C142.957 28.6388 146.822 29.145 147.057 29.1755C154.817 30.5976 160.667 37.4895 160.667 45.2201C160.667 54.1045 153.168 61.3338 143.953 61.3338H137.333C136.413 61.3338 135.667 62.0521 135.667 62.9407C135.667 63.8293 136.413 64.5475 137.333 64.5475H143.953C155.007 64.5475 164 55.8769 164 45.2201C164 36.4 157.622 28.4894 148.958 26.2944Z" fill="#A6A09B"/>
<path d="M116.848 42.5238C116.695 42.3744 116.51 42.2571 116.305 42.1751C115.898 42.0128 115.438 42.0128 115.032 42.1751C114.827 42.2571 114.643 42.3744 114.488 42.5238L101.157 55.3772C100.505 56.0055 100.505 57.0211 101.157 57.6494C101.482 57.9627 101.908 58.1202 102.335 58.1202C102.762 58.1202 103.188 57.9627 103.513 57.6494L114.002 47.5373V80.6165C114.002 81.5051 114.748 82.2233 115.668 82.2233C116.588 82.2233 117.335 81.5051 117.335 80.6165V47.5373L127.823 57.6494C128.148 57.9627 128.575 58.1202 129.002 58.1202C129.428 58.1202 129.855 57.9627 130.18 57.6494C130.832 57.0211 130.832 56.0055 130.18 55.3772L116.848 42.5238Z" fill="#A6A09B"/>
</g>
<path d="M26.4733 187.64C26.5693 187.64 26.6593 187.676 26.7433 187.748C26.8273 187.82 26.8693 187.904 26.8693 188V196.586C26.8693 196.706 26.8273 196.808 26.7433 196.892C26.6713 196.964 26.5753 197 26.4553 197H25.6633C25.5433 197 25.4413 196.964 25.3573 196.892C25.2853 196.808 25.2493 196.706 25.2493 196.586V189.998L20.2093 196.73C20.0773 196.91 19.9213 197 19.7413 197H18.9673C18.8713 197 18.7813 196.964 18.6973 196.892C18.6253 196.808 18.5893 196.718 18.5893 196.622V188.054C18.5893 187.934 18.6253 187.838 18.6973 187.766C18.7813 187.682 18.8833 187.64 19.0033 187.64H19.7953C19.9153 187.64 20.0113 187.682 20.0833 187.766C20.1673 187.838 20.2093 187.934 20.2093 188.054V194.642L25.2493 187.91C25.3813 187.73 25.5373 187.64 25.7173 187.64H26.4733ZM29.0549 197C28.9349 197 28.8329 196.958 28.7489 196.874C28.6649 196.79 28.6229 196.688 28.6229 196.568V195.938C28.6229 195.83 28.6589 195.74 28.7309 195.668C28.8029 195.596 28.8929 195.554 29.0009 195.542C29.5769 195.53 30.0089 195.122 30.2969 194.318C30.5849 193.502 30.7289 192.182 30.7289 190.358V188.054C30.7289 187.934 30.7649 187.838 30.8369 187.766C30.9209 187.682 31.0229 187.64 31.1429 187.64H36.7949C36.9269 187.64 37.0289 187.676 37.1009 187.748C37.1729 187.82 37.2089 187.922 37.2089 188.054V196.586C37.2089 196.706 37.1669 196.808 37.0829 196.892C37.0109 196.964 36.9149 197 36.7949 197H36.0029C35.8829 197 35.7809 196.964 35.6969 196.892C35.6249 196.808 35.5889 196.706 35.5889 196.586V189.026H32.3129V190.538C32.3129 192.818 32.0489 194.468 31.5209 195.488C30.9929 196.496 30.1709 197 29.0549 197ZM47.8131 187.64C47.9091 187.64 47.9991 187.676 48.0831 187.748C48.1671 187.82 48.2091 187.904 48.2091 188V196.586C48.2091 196.706 48.1671 196.808 48.0831 196.892C48.0111 196.964 47.9151 197 47.7951 197H47.0031C46.8831 197 46.7811 196.964 46.6971 196.892C46.6251 196.808 46.5891 196.706 46.5891 196.586V189.998L41.5491 196.73C41.4171 196.91 41.2611 197 41.0811 197H40.3071C40.2111 197 40.1211 196.964 40.0371 196.892C39.9651 196.808 39.9291 196.718 39.9291 196.622V188.054C39.9291 187.934 39.9651 187.838 40.0371 187.766C40.1211 187.682 40.2231 187.64 40.3431 187.64H41.1351C41.2551 187.64 41.3511 187.682 41.4231 187.766C41.5071 187.838 41.5491 187.934 41.5491 188.054V194.642L46.5891 187.91C46.7211 187.73 46.8771 187.64 47.0571 187.64H47.8131ZM55.9224 197C55.8024 197 55.7064 196.964 55.6344 196.892C55.5624 196.808 55.5264 196.706 55.5264 196.586V184.832C55.5264 184.7 55.5624 184.598 55.6344 184.526C55.7064 184.442 55.8024 184.4 55.9224 184.4H64.7604C64.8924 184.4 64.9944 184.442 65.0664 184.526C65.1504 184.598 65.1924 184.7 65.1924 184.832V196.586C65.1924 196.706 65.1504 196.808 65.0664 196.892C64.9824 196.964 64.8804 197 64.7604 197H63.8964C63.7764 197 63.6744 196.964 63.5904 196.892C63.5184 196.808 63.4824 196.706 63.4824 196.586V185.966H57.2184V196.586C57.2184 196.706 57.1764 196.808 57.0924 196.892C57.0084 196.964 56.9064 197 56.7864 197H55.9224ZM71.8148 197.18C70.5908 197.18 69.6128 196.802 68.8808 196.046C68.1488 195.278 67.7468 194.234 67.6748 192.914L67.6568 192.302L67.6748 191.708C67.7468 190.412 68.1488 189.38 68.8808 188.612C69.6128 187.844 70.5908 187.46 71.8148 187.46C73.1348 187.46 74.1548 187.88 74.8748 188.72C75.6068 189.56 75.9728 190.7 75.9728 192.14V192.464C75.9728 192.584 75.9308 192.686 75.8468 192.77C75.7748 192.842 75.6788 192.878 75.5588 192.878H69.3128V193.04C69.3488 193.82 69.5888 194.486 70.0328 195.038C70.4768 195.59 71.0648 195.866 71.7968 195.866C72.3608 195.866 72.8168 195.758 73.1648 195.542C73.5248 195.314 73.7948 195.08 73.9748 194.84C74.0828 194.696 74.1668 194.612 74.2268 194.588C74.2868 194.552 74.3888 194.534 74.5328 194.534H75.3248C75.4328 194.534 75.5228 194.564 75.5948 194.624C75.6788 194.684 75.7208 194.762 75.7208 194.858C75.7208 195.122 75.5588 195.44 75.2348 195.812C74.9108 196.184 74.4488 196.508 73.8488 196.784C73.2608 197.048 72.5828 197.18 71.8148 197.18ZM74.3348 191.654V191.6C74.3348 190.76 74.1068 190.076 73.6508 189.548C73.1948 189.02 72.5828 188.756 71.8148 188.756C71.0348 188.756 70.4228 189.02 69.9788 189.548C69.5348 190.076 69.3128 190.76 69.3128 191.6V191.654H74.3348ZM78.5935 200.42C78.4735 200.42 78.3715 200.384 78.2875 200.312C78.2155 200.24 78.1795 200.138 78.1795 200.006V188.054C78.1795 187.922 78.2155 187.82 78.2875 187.748C78.3715 187.676 78.4735 187.64 78.5935 187.64H79.3495C79.4815 187.64 79.5835 187.676 79.6555 187.748C79.7275 187.82 79.7635 187.922 79.7635 188.054V188.846C80.4595 187.922 81.4495 187.46 82.7335 187.46C83.9935 187.46 84.9355 187.862 85.5595 188.666C86.1955 189.458 86.5315 190.472 86.5675 191.708C86.5795 191.84 86.5855 192.044 86.5855 192.32C86.5855 192.596 86.5795 192.8 86.5675 192.932C86.5315 194.156 86.1955 195.17 85.5595 195.974C84.9355 196.778 83.9935 197.18 82.7335 197.18C81.4495 197.18 80.4775 196.724 79.8175 195.812V200.006C79.8175 200.126 79.7755 200.222 79.6915 200.294C79.6195 200.378 79.5235 200.42 79.4035 200.42H78.5935ZM82.3915 195.776C83.2555 195.776 83.8855 195.506 84.2815 194.966C84.6775 194.426 84.8935 193.718 84.9295 192.842C84.9415 192.722 84.9475 192.548 84.9475 192.32C84.9475 190.016 84.0955 188.864 82.3915 188.864C81.5515 188.864 80.9155 189.146 80.4835 189.71C80.0635 190.262 79.8415 190.916 79.8175 191.672C79.8055 191.804 79.7995 192.038 79.7995 192.374C79.7995 192.71 79.8055 192.944 79.8175 193.076C79.8415 193.808 80.0695 194.444 80.5015 194.984C80.9455 195.512 81.5755 195.776 82.3915 195.776ZM92.557 197.18C91.333 197.18 90.355 196.802 89.623 196.046C88.891 195.278 88.489 194.234 88.417 192.914L88.399 192.302L88.417 191.708C88.489 190.412 88.891 189.38 89.623 188.612C90.355 187.844 91.333 187.46 92.557 187.46C93.877 187.46 94.897 187.88 95.617 188.72C96.349 189.56 96.715 190.7 96.715 192.14V192.464C96.715 192.584 96.673 192.686 96.589 192.77C96.517 192.842 96.421 192.878 96.301 192.878H90.055V193.04C90.091 193.82 90.331 194.486 90.775 195.038C91.219 195.59 91.807 195.866 92.539 195.866C93.103 195.866 93.559 195.758 93.907 195.542C94.267 195.314 94.537 195.08 94.717 194.84C94.825 194.696 94.909 194.612 94.969 194.588C95.029 194.552 95.131 194.534 95.275 194.534H96.067C96.175 194.534 96.265 194.564 96.337 194.624C96.421 194.684 96.463 194.762 96.463 194.858C96.463 195.122 96.301 195.44 95.977 195.812C95.653 196.184 95.191 196.508 94.591 196.784C94.003 197.048 93.325 197.18 92.557 197.18ZM95.077 191.654V191.6C95.077 190.76 94.849 190.076 94.393 189.548C93.937 189.02 93.325 188.756 92.557 188.756C91.777 188.756 91.165 189.02 90.721 189.548C90.277 190.076 90.055 190.76 90.055 191.6V191.654H95.077ZM101.766 197C101.646 197 101.544 196.964 101.46 196.892C101.388 196.808 101.352 196.706 101.352 196.586V189.026H98.2017C98.0817 189.026 97.9797 188.99 97.8957 188.918C97.8237 188.846 97.7877 188.75 97.7877 188.63V188.054C97.7877 187.934 97.8237 187.838 97.8957 187.766C97.9797 187.682 98.0817 187.64 98.2017 187.64H106.104C106.224 187.64 106.32 187.682 106.392 187.766C106.464 187.838 106.5 187.934 106.5 188.054V188.63C106.5 188.75 106.464 188.846 106.392 188.918C106.32 188.99 106.224 189.026 106.104 189.026H102.954V196.586C102.954 196.706 102.912 196.808 102.828 196.892C102.756 196.964 102.66 197 102.54 197H101.766ZM110.689 197.18C110.101 197.18 109.555 197.06 109.051 196.82C108.559 196.58 108.163 196.256 107.863 195.848C107.575 195.428 107.431 194.966 107.431 194.462C107.431 193.67 107.755 193.022 108.403 192.518C109.051 192.014 109.933 191.678 111.049 191.51L113.749 191.132V190.61C113.749 189.374 113.035 188.756 111.607 188.756C111.055 188.756 110.611 188.87 110.275 189.098C109.939 189.314 109.693 189.572 109.537 189.872C109.489 189.992 109.435 190.076 109.375 190.124C109.327 190.16 109.255 190.178 109.159 190.178H108.457C108.349 190.178 108.253 190.142 108.169 190.07C108.097 189.986 108.061 189.89 108.061 189.782C108.061 189.506 108.187 189.188 108.439 188.828C108.703 188.456 109.105 188.138 109.645 187.874C110.185 187.598 110.845 187.46 111.625 187.46C112.969 187.46 113.929 187.772 114.505 188.396C115.093 189.02 115.387 189.8 115.387 190.736V196.586C115.387 196.706 115.345 196.808 115.261 196.892C115.189 196.964 115.093 197 114.973 197H114.181C114.061 197 113.965 196.964 113.893 196.892C113.821 196.808 113.785 196.706 113.785 196.586V195.794C113.521 196.19 113.137 196.52 112.633 196.784C112.129 197.048 111.481 197.18 110.689 197.18ZM111.049 195.866C111.841 195.866 112.489 195.608 112.993 195.092C113.497 194.576 113.749 193.826 113.749 192.842V192.338L111.643 192.644C110.779 192.764 110.125 192.968 109.681 193.256C109.237 193.544 109.015 193.904 109.015 194.336C109.015 194.828 109.213 195.206 109.609 195.47C110.017 195.734 110.497 195.866 111.049 195.866ZM129.478 199.286C129.358 199.286 129.262 199.244 129.19 199.16C129.118 199.088 129.082 198.992 129.082 198.872V197H118.408C118.288 197 118.186 196.964 118.102 196.892C118.03 196.808 117.994 196.706 117.994 196.586V188.054C117.994 187.934 118.03 187.838 118.102 187.766C118.186 187.682 118.288 187.64 118.408 187.64H119.164C119.296 187.64 119.398 187.676 119.47 187.748C119.542 187.82 119.578 187.922 119.578 188.054V195.596H122.926V188.054C122.926 187.934 122.962 187.838 123.034 187.766C123.118 187.682 123.22 187.64 123.34 187.64H124.06C124.18 187.64 124.276 187.682 124.348 187.766C124.432 187.838 124.474 187.934 124.474 188.054V195.596H127.822V188.054C127.822 187.934 127.858 187.838 127.93 187.766C128.014 187.682 128.116 187.64 128.236 187.64H128.992C129.124 187.64 129.226 187.676 129.298 187.748C129.37 187.82 129.406 187.922 129.406 188.054V195.596H130.27C130.39 195.596 130.486 195.638 130.558 195.722C130.642 195.794 130.684 195.89 130.684 196.01V198.872C130.684 198.992 130.642 199.088 130.558 199.16C130.486 199.244 130.39 199.286 130.27 199.286H129.478ZM140.467 187.64C140.563 187.64 140.653 187.676 140.737 187.748C140.821 187.82 140.863 187.904 140.863 188V196.586C140.863 196.706 140.821 196.808 140.737 196.892C140.665 196.964 140.569 197 140.449 197H139.657C139.537 197 139.435 196.964 139.351 196.892C139.279 196.808 139.243 196.706 139.243 196.586V189.998L134.203 196.73C134.071 196.91 133.915 197 133.735 197H132.961C132.865 197 132.775 196.964 132.691 196.892C132.619 196.808 132.583 196.718 132.583 196.622V188.054C132.583 187.934 132.619 187.838 132.691 187.766C132.775 187.682 132.877 187.64 132.997 187.64H133.789C133.909 187.64 134.005 187.682 134.077 187.766C134.161 187.838 134.203 187.934 134.203 188.054V194.642L139.243 187.91C139.375 187.73 139.531 187.64 139.711 187.64H140.467ZM146.379 197C146.259 197 146.157 196.964 146.073 196.892C146.001 196.808 145.965 196.706 145.965 196.586V189.026H142.815C142.695 189.026 142.593 188.99 142.509 188.918C142.437 188.846 142.401 188.75 142.401 188.63V188.054C142.401 187.934 142.437 187.838 142.509 187.766C142.593 187.682 142.695 187.64 142.815 187.64H150.717C150.837 187.64 150.933 187.682 151.005 187.766C151.077 187.838 151.113 187.934 151.113 188.054V188.63C151.113 188.75 151.077 188.846 151.005 188.918C150.933 188.99 150.837 189.026 150.717 189.026H147.567V196.586C147.567 196.706 147.525 196.808 147.441 196.892C147.369 196.964 147.273 197 147.153 197H146.379ZM156.418 197.18C155.194 197.18 154.216 196.802 153.484 196.046C152.752 195.278 152.35 194.234 152.278 192.914L152.26 192.302L152.278 191.708C152.35 190.412 152.752 189.38 153.484 188.612C154.216 187.844 155.194 187.46 156.418 187.46C157.738 187.46 158.758 187.88 159.478 188.72C160.21 189.56 160.576 190.7 160.576 192.14V192.464C160.576 192.584 160.534 192.686 160.45 192.77C160.378 192.842 160.282 192.878 160.162 192.878H153.916V193.04C153.952 193.82 154.192 194.486 154.636 195.038C155.08 195.59 155.668 195.866 156.4 195.866C156.964 195.866 157.42 195.758 157.768 195.542C158.128 195.314 158.398 195.08 158.578 194.84C158.686 194.696 158.77 194.612 158.83 194.588C158.89 194.552 158.992 194.534 159.136 194.534H159.928C160.036 194.534 160.126 194.564 160.198 194.624C160.282 194.684 160.324 194.762 160.324 194.858C160.324 195.122 160.162 195.44 159.838 195.812C159.514 196.184 159.052 196.508 158.452 196.784C157.864 197.048 157.186 197.18 156.418 197.18ZM158.938 191.654V191.6C158.938 190.76 158.71 190.076 158.254 189.548C157.798 189.02 157.186 188.756 156.418 188.756C155.638 188.756 155.026 189.02 154.582 189.548C154.138 190.076 153.916 190.76 153.916 191.6V191.654H158.938ZM171.875 200.42C171.755 200.42 171.653 200.384 171.569 200.312C171.497 200.24 171.461 200.138 171.461 200.006V197C169.949 197 168.809 196.634 168.041 195.902C167.273 195.17 166.859 194.18 166.799 192.932L166.781 192.32L166.799 191.69C166.859 190.454 167.273 189.47 168.041 188.738C168.821 188.006 169.961 187.64 171.461 187.64V184.634C171.461 184.502 171.497 184.4 171.569 184.328C171.653 184.256 171.755 184.22 171.875 184.22H172.667C172.787 184.22 172.883 184.262 172.955 184.346C173.027 184.418 173.063 184.514 173.063 184.634V187.64C174.575 187.64 175.715 188.006 176.483 188.738C177.251 189.47 177.665 190.454 177.725 191.69C177.749 191.954 177.761 192.164 177.761 192.32C177.761 192.464 177.749 192.668 177.725 192.932C177.665 194.18 177.251 195.17 176.483 195.902C175.727 196.634 174.587 197 173.063 197V200.006C173.063 200.126 173.027 200.222 172.955 200.294C172.883 200.378 172.787 200.42 172.667 200.42H171.875ZM171.461 188.99C169.517 188.99 168.497 189.932 168.401 191.816L168.383 192.32L168.401 192.824C168.461 193.772 168.737 194.48 169.229 194.948C169.733 195.416 170.477 195.65 171.461 195.65V188.99ZM173.063 195.65C174.047 195.65 174.785 195.416 175.277 194.948C175.781 194.468 176.063 193.76 176.123 192.824C176.135 192.704 176.141 192.536 176.141 192.32C176.141 192.104 176.135 191.936 176.123 191.816C176.027 189.932 175.007 188.99 173.063 188.99V195.65ZM183.825 197.18C182.505 197.18 181.485 196.808 180.765 196.064C180.057 195.32 179.679 194.33 179.631 193.094L179.613 192.32L179.631 191.546C179.679 190.31 180.063 189.32 180.783 188.576C181.515 187.832 182.529 187.46 183.825 187.46C185.121 187.46 186.129 187.832 186.849 188.576C187.581 189.32 187.971 190.31 188.019 191.546C188.043 191.81 188.055 192.068 188.055 192.32C188.055 192.572 188.043 192.83 188.019 193.094C187.971 194.33 187.587 195.32 186.867 196.064C186.159 196.808 185.145 197.18 183.825 197.18ZM183.825 195.83C184.593 195.83 185.199 195.59 185.643 195.11C186.099 194.618 186.345 193.916 186.381 193.004C186.393 192.884 186.399 192.656 186.399 192.32C186.399 191.984 186.393 191.756 186.381 191.636C186.345 190.724 186.099 190.028 185.643 189.548C185.199 189.056 184.593 188.81 183.825 188.81C183.057 188.81 182.445 189.056 181.989 189.548C181.545 190.028 181.305 190.724 181.269 191.636L181.251 192.32L181.269 193.004C181.305 193.916 181.545 194.618 181.989 195.11C182.445 195.59 183.057 195.83 183.825 195.83ZM193.19 197C193.07 197 192.968 196.964 192.884 196.892C192.812 196.808 192.776 196.706 192.776 196.586V189.026H189.626C189.506 189.026 189.404 188.99 189.32 188.918C189.248 188.846 189.212 188.75 189.212 188.63V188.054C189.212 187.934 189.248 187.838 189.32 187.766C189.404 187.682 189.506 187.64 189.626 187.64H197.528C197.648 187.64 197.744 187.682 197.816 187.766C197.888 187.838 197.924 187.934 197.924 188.054V188.63C197.924 188.75 197.888 188.846 197.816 188.918C197.744 188.99 197.648 189.026 197.528 189.026H194.378V196.586C194.378 196.706 194.336 196.808 194.252 196.892C194.18 196.964 194.084 197 193.964 197H193.19ZM203.319 197.18C201.999 197.18 200.979 196.808 200.259 196.064C199.551 195.32 199.173 194.33 199.125 193.094L199.107 192.32L199.125 191.546C199.173 190.31 199.557 189.32 200.277 188.576C201.009 187.832 202.023 187.46 203.319 187.46C204.615 187.46 205.623 187.832 206.343 188.576C207.075 189.32 207.465 190.31 207.513 191.546C207.537 191.81 207.549 192.068 207.549 192.32C207.549 192.572 207.537 192.83 207.513 193.094C207.465 194.33 207.081 195.32 206.361 196.064C205.653 196.808 204.639 197.18 203.319 197.18ZM203.319 195.83C204.087 195.83 204.693 195.59 205.137 195.11C205.593 194.618 205.839 193.916 205.875 193.004C205.887 192.884 205.893 192.656 205.893 192.32C205.893 191.984 205.887 191.756 205.875 191.636C205.839 190.724 205.593 190.028 205.137 189.548C204.693 189.056 204.087 188.81 203.319 188.81C202.551 188.81 201.939 189.056 201.483 189.548C201.039 190.028 200.799 190.724 200.763 191.636L200.745 192.32L200.763 193.004C200.799 193.916 201.039 194.618 201.483 195.11C201.939 195.59 202.551 195.83 203.319 195.83ZM209.52 198.35C209.412 198.35 209.328 198.314 209.268 198.242C209.22 198.17 209.208 198.08 209.232 197.972L209.628 195.434C209.676 195.086 209.844 194.912 210.132 194.912H211.284C211.368 194.912 211.44 194.948 211.5 195.02C211.56 195.08 211.59 195.146 211.59 195.218C211.59 195.314 211.566 195.416 211.518 195.524L210.582 197.936C210.474 198.212 210.306 198.35 210.078 198.35H209.52ZM51.1852 220C51.0652 220 50.9632 219.964 50.8792 219.892C50.8072 219.808 50.7712 219.706 50.7712 219.586V216.166C50.1472 216.754 49.2292 217.048 48.0172 217.048C45.8092 217.048 44.7052 216.07 44.7052 214.114V211.054C44.7052 210.922 44.7412 210.82 44.8132 210.748C44.8972 210.676 44.9992 210.64 45.1192 210.64H45.9292C46.0492 210.64 46.1452 210.682 46.2172 210.766C46.3012 210.838 46.3432 210.934 46.3432 211.054V214.006C46.3432 214.558 46.4992 214.96 46.8112 215.212C47.1232 215.452 47.6212 215.572 48.3052 215.572C49.0972 215.572 49.7032 215.476 50.1232 215.284C50.5552 215.08 50.7712 214.75 50.7712 214.294V211.054C50.7712 210.934 50.8072 210.838 50.8792 210.766C50.9632 210.682 51.0652 210.64 51.1852 210.64H52.0312C52.1512 210.64 52.2472 210.682 52.3192 210.766C52.4032 210.838 52.4452 210.934 52.4452 211.054V219.586C52.4452 219.706 52.4032 219.808 52.3192 219.892C52.2472 219.964 52.1512 220 52.0312 220H51.1852ZM58.0225 220C57.9025 220 57.8005 219.964 57.7165 219.892C57.6445 219.808 57.6085 219.706 57.6085 219.586V212.026H54.4585C54.3385 212.026 54.2365 211.99 54.1525 211.918C54.0805 211.846 54.0445 211.75 54.0445 211.63V211.054C54.0445 210.934 54.0805 210.838 54.1525 210.766C54.2365 210.682 54.3385 210.64 54.4585 210.64H62.3605C62.4805 210.64 62.5765 210.682 62.6485 210.766C62.7205 210.838 62.7565 210.934 62.7565 211.054V211.63C62.7565 211.75 62.7205 211.846 62.6485 211.918C62.5765 211.99 62.4805 212.026 62.3605 212.026H59.2105V219.586C59.2105 219.706 59.1685 219.808 59.0845 219.892C59.0125 219.964 58.9165 220 58.7965 220H58.0225ZM68.1519 220.18C66.8319 220.18 65.8119 219.808 65.0919 219.064C64.3839 218.32 64.0059 217.33 63.9579 216.094L63.9399 215.32L63.9579 214.546C64.0059 213.31 64.3899 212.32 65.1099 211.576C65.8419 210.832 66.8559 210.46 68.1519 210.46C69.4479 210.46 70.4559 210.832 71.1759 211.576C71.9079 212.32 72.2979 213.31 72.3459 214.546C72.3699 214.81 72.3819 215.068 72.3819 215.32C72.3819 215.572 72.3699 215.83 72.3459 216.094C72.2979 217.33 71.9139 218.32 71.1939 219.064C70.4859 219.808 69.4719 220.18 68.1519 220.18ZM68.1519 218.83C68.9199 218.83 69.5259 218.59 69.9699 218.11C70.4259 217.618 70.6719 216.916 70.7079 216.004C70.7199 215.884 70.7259 215.656 70.7259 215.32C70.7259 214.984 70.7199 214.756 70.7079 214.636C70.6719 213.724 70.4259 213.028 69.9699 212.548C69.5259 212.056 68.9199 211.81 68.1519 211.81C67.3839 211.81 66.7719 212.056 66.3159 212.548C65.8719 213.028 65.6319 213.724 65.5959 214.636L65.5779 215.32L65.5959 216.004C65.6319 216.916 65.8719 217.618 66.3159 218.11C66.7719 218.59 67.3839 218.83 68.1519 218.83ZM82.7907 215.104C82.8027 215.224 82.8087 215.416 82.8087 215.68C82.8087 215.908 82.8027 216.07 82.7907 216.166C82.7427 217.378 82.3587 218.35 81.6387 219.082C80.9187 219.814 79.9047 220.18 78.5967 220.18C77.2527 220.18 76.2267 219.802 75.5187 219.046C74.8107 218.278 74.4267 217.222 74.3667 215.878V213.718C74.3787 212.002 74.6067 210.718 75.0507 209.866C75.5067 209.002 76.1427 208.384 76.9587 208.012C77.7867 207.628 79.1247 207.196 80.9727 206.716L81.4587 206.59L81.5487 206.572C81.6327 206.572 81.7107 206.602 81.7827 206.662C81.8547 206.722 81.9027 206.8 81.9267 206.896L82.0707 207.58L82.0887 207.688C82.0887 207.868 81.9927 207.988 81.8007 208.048C81.6567 208.084 81.3387 208.162 80.8467 208.282C79.4787 208.606 78.4887 208.888 77.8767 209.128C77.2767 209.368 76.8147 209.746 76.4907 210.262C76.1667 210.778 75.9867 211.546 75.9507 212.566C76.2387 212.134 76.6467 211.78 77.1747 211.504C77.7027 211.228 78.2667 211.09 78.8667 211.09C80.0787 211.09 81.0207 211.462 81.6927 212.206C82.3767 212.938 82.7427 213.904 82.7907 215.104ZM81.1347 216.076C81.1467 215.992 81.1527 215.86 81.1527 215.68C81.1527 215.464 81.1467 215.302 81.1347 215.194C81.1107 214.294 80.8827 213.604 80.4507 213.124C80.0187 212.632 79.4547 212.386 78.7587 212.386C77.9667 212.386 77.3247 212.632 76.8327 213.124C76.3407 213.604 76.0767 214.294 76.0407 215.194L76.0227 215.68L76.0407 216.076C76.0767 216.976 76.3167 217.672 76.7607 218.164C77.2167 218.644 77.8287 218.884 78.5967 218.884C79.3527 218.884 79.9587 218.644 80.4147 218.164C80.8707 217.672 81.1107 216.976 81.1347 216.076ZM85.5101 220C85.3901 220 85.2881 219.964 85.2041 219.892C85.1321 219.808 85.0961 219.706 85.0961 219.586V211.054C85.0961 210.934 85.1321 210.838 85.2041 210.766C85.2881 210.682 85.3901 210.64 85.5101 210.64H86.3021C86.4221 210.64 86.5181 210.682 86.5901 210.766C86.6741 210.838 86.7161 210.934 86.7161 211.054V213.7H88.6061C89.7821 213.7 90.6581 213.982 91.2341 214.546C91.8221 215.11 92.1161 215.896 92.1161 216.904C92.1161 217.96 91.8041 218.74 91.1801 219.244C90.5681 219.748 89.6321 220 88.3721 220H85.5101ZM93.8261 220C93.7061 220 93.6041 219.964 93.5201 219.892C93.4481 219.808 93.4121 219.706 93.4121 219.586V211.054C93.4121 210.934 93.4481 210.838 93.5201 210.766C93.6041 210.682 93.7061 210.64 93.8261 210.64H94.6181C94.7381 210.64 94.8341 210.682 94.9061 210.766C94.9901 210.838 95.0321 210.934 95.0321 211.054V219.586C95.0321 219.706 94.9901 219.808 94.9061 219.892C94.8341 219.964 94.7381 220 94.6181 220H93.8261ZM88.4621 218.686C89.2061 218.686 89.7461 218.554 90.0821 218.29C90.4181 218.014 90.5861 217.552 90.5861 216.904C90.5861 216.268 90.4181 215.794 90.0821 215.482C89.7461 215.17 89.2061 215.014 88.4621 215.014H86.6981V218.686H88.4621ZM105.404 220.18C104.54 220.18 103.82 220.042 103.244 219.766C102.68 219.49 102.266 219.154 102.002 218.758C101.75 218.362 101.618 217.972 101.606 217.588C101.606 217.48 101.642 217.396 101.714 217.336C101.786 217.264 101.876 217.228 101.984 217.228H102.758C102.878 217.228 102.968 217.258 103.028 217.318C103.1 217.366 103.16 217.456 103.208 217.588C103.34 218.044 103.598 218.368 103.982 218.56C104.378 218.752 104.9 218.848 105.548 218.848C106.172 218.848 106.682 218.722 107.078 218.47C107.486 218.206 107.69 217.822 107.69 217.318C107.69 216.31 107.108 215.806 105.944 215.806H104.954C104.834 215.806 104.738 215.77 104.666 215.698C104.594 215.626 104.558 215.53 104.558 215.41V214.96C104.558 214.84 104.594 214.744 104.666 214.672C104.738 214.6 104.834 214.564 104.954 214.564H105.836C106.868 214.564 107.384 214.15 107.384 213.322C107.384 212.89 107.222 212.53 106.898 212.242C106.586 211.942 106.088 211.792 105.404 211.792C104.732 211.792 104.246 211.906 103.946 212.134C103.646 212.35 103.43 212.71 103.298 213.214C103.238 213.442 103.088 213.556 102.848 213.556H102.092C101.996 213.556 101.912 213.526 101.84 213.466C101.768 213.394 101.732 213.31 101.732 213.214C101.744 212.71 101.888 212.254 102.164 211.846C102.44 211.426 102.848 211.09 103.388 210.838C103.94 210.586 104.612 210.46 105.404 210.46C106.232 210.46 106.91 210.592 107.438 210.856C107.978 211.12 108.368 211.45 108.608 211.846C108.848 212.242 108.968 212.656 108.968 213.088C108.968 213.58 108.884 213.976 108.716 214.276C108.56 214.576 108.278 214.828 107.87 215.032C108.386 215.236 108.752 215.542 108.968 215.95C109.196 216.346 109.31 216.838 109.31 217.426C109.31 218.314 108.95 218.998 108.23 219.478C107.51 219.946 106.568 220.18 105.404 220.18ZM113.95 220.18C113.362 220.18 112.816 220.06 112.312 219.82C111.82 219.58 111.424 219.256 111.124 218.848C110.836 218.428 110.692 217.966 110.692 217.462C110.692 216.67 111.016 216.022 111.664 215.518C112.312 215.014 113.194 214.678 114.31 214.51L117.01 214.132V213.61C117.01 212.374 116.296 211.756 114.868 211.756C114.316 211.756 113.872 211.87 113.536 212.098C113.2 212.314 112.954 212.572 112.798 212.872C112.75 212.992 112.696 213.076 112.636 213.124C112.588 213.16 112.516 213.178 112.42 213.178H111.718C111.61 213.178 111.514 213.142 111.43 213.07C111.358 212.986 111.322 212.89 111.322 212.782C111.322 212.506 111.448 212.188 111.7 211.828C111.964 211.456 112.366 211.138 112.906 210.874C113.446 210.598 114.106 210.46 114.886 210.46C116.23 210.46 117.19 210.772 117.766 211.396C118.354 212.02 118.648 212.8 118.648 213.736V219.586C118.648 219.706 118.606 219.808 118.522 219.892C118.45 219.964 118.354 220 118.234 220H117.442C117.322 220 117.226 219.964 117.154 219.892C117.082 219.808 117.046 219.706 117.046 219.586V218.794C116.782 219.19 116.398 219.52 115.894 219.784C115.39 220.048 114.742 220.18 113.95 220.18ZM114.31 218.866C115.102 218.866 115.75 218.608 116.254 218.092C116.758 217.576 117.01 216.826 117.01 215.842V215.338L114.904 215.644C114.04 215.764 113.386 215.968 112.942 216.256C112.498 216.544 112.276 216.904 112.276 217.336C112.276 217.828 112.474 218.206 112.87 218.47C113.278 218.734 113.758 218.866 114.31 218.866ZM121.668 220C121.548 220 121.446 219.964 121.362 219.892C121.29 219.808 121.254 219.706 121.254 219.586V211.054C121.254 210.934 121.29 210.838 121.362 210.766C121.446 210.682 121.548 210.64 121.668 210.64H127.014C127.134 210.64 127.23 210.682 127.302 210.766C127.374 210.838 127.41 210.934 127.41 211.054V211.63C127.41 211.75 127.374 211.846 127.302 211.918C127.23 211.99 127.134 212.026 127.014 212.026H122.874V219.586C122.874 219.706 122.832 219.808 122.748 219.892C122.676 219.964 122.58 220 122.46 220H121.668ZM129.403 223.42C129.283 223.42 129.181 223.384 129.097 223.312C129.025 223.24 128.989 223.138 128.989 223.006V211.054C128.989 210.922 129.025 210.82 129.097 210.748C129.181 210.676 129.283 210.64 129.403 210.64H130.159C130.291 210.64 130.393 210.676 130.465 210.748C130.537 210.82 130.573 210.922 130.573 211.054V211.846C131.269 210.922 132.259 210.46 133.543 210.46C134.803 210.46 135.745 210.862 136.369 211.666C137.005 212.458 137.341 213.472 137.377 214.708C137.389 214.84 137.395 215.044 137.395 215.32C137.395 215.596 137.389 215.8 137.377 215.932C137.341 217.156 137.005 218.17 136.369 218.974C135.745 219.778 134.803 220.18 133.543 220.18C132.259 220.18 131.287 219.724 130.627 218.812V223.006C130.627 223.126 130.585 223.222 130.501 223.294C130.429 223.378 130.333 223.42 130.213 223.42H129.403ZM133.201 218.776C134.065 218.776 134.695 218.506 135.091 217.966C135.487 217.426 135.703 216.718 135.739 215.842C135.751 215.722 135.757 215.548 135.757 215.32C135.757 213.016 134.905 211.864 133.201 211.864C132.361 211.864 131.725 212.146 131.293 212.71C130.873 213.262 130.651 213.916 130.627 214.672C130.615 214.804 130.609 215.038 130.609 215.374C130.609 215.71 130.615 215.944 130.627 216.076C130.651 216.808 130.879 217.444 131.311 217.984C131.755 218.512 132.385 218.776 133.201 218.776ZM146.921 210.64C147.017 210.64 147.101 210.676 147.173 210.748C147.257 210.82 147.299 210.904 147.299 211C147.299 211.048 147.263 211.156 147.191 211.324L143.771 219.424L143.609 219.802C143.285 220.57 142.991 221.194 142.727 221.674C142.475 222.154 142.151 222.562 141.755 222.898C141.371 223.246 140.915 223.42 140.387 223.42H139.703C139.583 223.42 139.481 223.378 139.397 223.294C139.325 223.222 139.289 223.126 139.289 223.006V222.448C139.289 222.328 139.325 222.226 139.397 222.142C139.481 222.07 139.583 222.034 139.703 222.034H140.171C140.435 222.034 140.651 221.98 140.819 221.872C140.987 221.764 141.137 221.59 141.269 221.35C141.413 221.11 141.593 220.738 141.809 220.234L142.115 219.496L138.605 211.324C138.545 211.168 138.515 211.066 138.515 211.018C138.515 210.91 138.551 210.82 138.623 210.748C138.695 210.676 138.785 210.64 138.893 210.64H139.685C139.877 210.64 140.021 210.736 140.117 210.928L142.925 217.588L145.715 210.928C145.799 210.736 145.949 210.64 146.165 210.64H146.921ZM152.355 220.18C151.491 220.18 150.771 220.042 150.195 219.766C149.631 219.49 149.217 219.154 148.953 218.758C148.701 218.362 148.569 217.972 148.557 217.588C148.557 217.48 148.593 217.396 148.665 217.336C148.737 217.264 148.827 217.228 148.935 217.228H149.709C149.829 217.228 149.919 217.258 149.979 217.318C150.051 217.366 150.111 217.456 150.159 217.588C150.291 218.044 150.549 218.368 150.933 218.56C151.329 218.752 151.851 218.848 152.499 218.848C153.123 218.848 153.633 218.722 154.029 218.47C154.437 218.206 154.641 217.822 154.641 217.318C154.641 216.31 154.059 215.806 152.895 215.806H151.905C151.785 215.806 151.689 215.77 151.617 215.698C151.545 215.626 151.509 215.53 151.509 215.41V214.96C151.509 214.84 151.545 214.744 151.617 214.672C151.689 214.6 151.785 214.564 151.905 214.564H152.787C153.819 214.564 154.335 214.15 154.335 213.322C154.335 212.89 154.173 212.53 153.849 212.242C153.537 211.942 153.039 211.792 152.355 211.792C151.683 211.792 151.197 211.906 150.897 212.134C150.597 212.35 150.381 212.71 150.249 213.214C150.189 213.442 150.039 213.556 149.799 213.556H149.043C148.947 213.556 148.863 213.526 148.791 213.466C148.719 213.394 148.683 213.31 148.683 213.214C148.695 212.71 148.839 212.254 149.115 211.846C149.391 211.426 149.799 211.09 150.339 210.838C150.891 210.586 151.563 210.46 152.355 210.46C153.183 210.46 153.861 210.592 154.389 210.856C154.929 211.12 155.319 211.45 155.559 211.846C155.799 212.242 155.919 212.656 155.919 213.088C155.919 213.58 155.835 213.976 155.667 214.276C155.511 214.576 155.229 214.828 154.821 215.032C155.337 215.236 155.703 215.542 155.919 215.95C156.147 216.346 156.261 216.838 156.261 217.426C156.261 218.314 155.901 218.998 155.181 219.478C154.461 219.946 153.519 220.18 152.355 220.18ZM166.193 210.64C166.289 210.64 166.379 210.676 166.463 210.748C166.547 210.82 166.589 210.904 166.589 211V219.586C166.589 219.706 166.547 219.808 166.463 219.892C166.391 219.964 166.295 220 166.175 220H165.383C165.263 220 165.161 219.964 165.077 219.892C165.005 219.808 164.969 219.706 164.969 219.586V212.998L159.929 219.73C159.797 219.91 159.641 220 159.461 220H158.687C158.591 220 158.501 219.964 158.417 219.892C158.345 219.808 158.309 219.718 158.309 219.622V211.054C158.309 210.934 158.345 210.838 158.417 210.766C158.501 210.682 158.603 210.64 158.723 210.64H159.515C159.635 210.64 159.731 210.682 159.803 210.766C159.887 210.838 159.929 210.934 159.929 211.054V217.642L164.969 210.91C165.101 210.73 165.257 210.64 165.437 210.64H166.193ZM172.105 220C171.985 220 171.883 219.964 171.799 219.892C171.727 219.808 171.691 219.706 171.691 219.586V212.026H168.541C168.421 212.026 168.319 211.99 168.235 211.918C168.163 211.846 168.127 211.75 168.127 211.63V211.054C168.127 210.934 168.163 210.838 168.235 210.766C168.319 210.682 168.421 210.64 168.541 210.64H176.443C176.563 210.64 176.659 210.682 176.731 210.766C176.803 210.838 176.839 210.934 176.839 211.054V211.63C176.839 211.75 176.803 211.846 176.731 211.918C176.659 211.99 176.563 212.026 176.443 212.026H173.293V219.586C173.293 219.706 173.251 219.808 173.167 219.892C173.095 219.964 172.999 220 172.879 220H172.105ZM178.85 220C178.73 220 178.628 219.964 178.544 219.892C178.472 219.808 178.436 219.706 178.436 219.586V211.054C178.436 210.934 178.472 210.838 178.544 210.766C178.628 210.682 178.73 210.64 178.85 210.64H179.642C179.762 210.64 179.858 210.682 179.93 210.766C180.014 210.838 180.056 210.934 180.056 211.054V213.7H182.09C183.278 213.7 184.16 213.982 184.736 214.546C185.312 215.098 185.6 215.884 185.6 216.904C185.6 217.96 185.294 218.74 184.682 219.244C184.07 219.748 183.134 220 181.874 220H178.85ZM181.946 218.686C182.69 218.686 183.23 218.554 183.566 218.29C183.902 218.014 184.07 217.552 184.07 216.904C184.07 216.268 183.902 215.794 183.566 215.482C183.23 215.17 182.69 215.014 181.946 215.014H180.038V218.686H181.946Z" fill="#A6A09B"/>
</svg>
